<svg width="512" height="512" xmlns="http://www.w3.org/2000/svg">
 <g>
  <title>background</title>
  <rect fill="none" id="canvas_background" height="634.104895" width="634.104895" y="-1" x="-1"/>
 </g>

 <g>
  <title>Layer 1</title>
  <path fill="#000000" d="m489.921932,349.204528l-19.212366,0l0,-28.40518c0,-40.832447 -33.184997,-74.563598 -73.356308,-74.563598c-40.171312,0 -73.356308,33.731152 -73.356308,74.563598l0,28.40518l-19.212366,0c-10.479473,0 -19.212366,8.876619 -19.212366,19.528561l0,126.047988c0,10.651943 8.732894,19.528561 19.212366,19.528561l183.390771,0c10.479473,0 19.212366,-8.876619 19.212366,-19.528561l0,-126.047988c1.746579,-10.651943 -6.986315,-19.528561 -17.465788,-19.528561l-0.000001,0zm-78.596045,92.316836l0,33.731152l-27.94526,0l0,-33.731152c-10.479473,-5.325971 -15.719209,-15.977914 -15.719209,-26.629857c0,-17.753238 13.97263,-31.955828 31.438418,-31.955828s31.438418,14.20259 31.438418,31.955828c-1.746579,12.427266 -8.732894,23.079209 -19.212366,26.629857l-0.000001,0zm22.705524,-92.316836l-73.356308,0l0,-26.629857c0,-19.528561 15.719209,-37.281799 36.678154,-37.281799c19.212366,0 36.678154,15.977914 36.678154,37.281799l0,26.629857z" id="svg_76" stroke="null"/>
  <path fill="#000000" d="m262.866692,366.957766c0,-23.079209 17.465788,-40.832447 38.424733,-42.60777c-1.746579,-3.550648 -1.746579,-7.101295 -1.746579,-10.651943c0,-51.484389 41.917891,-94.09216 92.568675,-94.09216s92.568675,42.60777 92.568675,94.09216c0,3.550648 -1.746579,7.101295 -1.746579,10.651943l15.719209,0c5.239736,-21.303885 8.732894,-44.383094 8.732894,-69.237627c0,-142.025902 -113.52762,-257.421946 -253.253922,-257.421946s-253.253922,117.171369 -253.253922,259.19727c0,140.250578 113.52762,255.646623 253.253922,257.421946l8.732894,0l0,-147.351873z" id="svg_75" stroke="null"/>
  <rect id="svg_10" fill="#ffffff" height="71.69" width="20" transform="matrix(-0.3905,-0.9206,0.9206,-0.3905,382.1416,650.4584) " y="162.883" x="396.394"/>
  <rect id="svg_12" fill="#ffffff" height="57.912" width="20" transform="matrix(-0.9167,-0.3996,0.3996,-0.9167,635.4045,425.6835) " y="117.651" x="352.076"/>
  <rect id="svg_13" fill="#ffffff" height="19.999" width="57.909" transform="matrix(-0.972,-0.2348,0.2348,-0.972,747.9791,625.6229) " y="258.281" x="382.282"/>
  <g id="svg_14"/>
  <g id="svg_15"/>
  <g id="svg_16"/>
  <g id="svg_17"/>
  <g id="svg_18"/>
  <g id="svg_19"/>
  <g id="svg_20"/>
  <g id="svg_21"/>
  <g id="svg_22"/>
  <g id="svg_23"/>
  <g id="svg_24"/>
  <g id="svg_25"/>
  <g id="svg_26"/>
  <g id="svg_27"/>
  <g id="svg_28"/>
  <path stroke="null" id="svg_33" fill="#ffffff" d="m146.12452,337.091891l54.741467,-16.124701c6.144711,15.604996 -8.657908,20.546479 -5.865309,39.792047c1.116898,7.282464 6.982207,5.201665 10.33361,13.264016l0.838205,19.765932l17.595218,13.003833c2.513907,6.241734 -5.865309,13.524198 -5.865309,13.524198s-18.433424,19.50575 -31.560342,17.425612c-18.432714,-2.600503 -40.217541,-100.650939 -40.217541,-100.650939l0.000001,0.000002z"/>
  <path stroke="null" id="svg_34" fill="#e5e5e5" d="m195.000678,360.759238c-2.513907,-18.465681 10.33361,-23.667347 6.423404,-37.451727l-34.073539,7.542646l-21.226023,6.241734c0,0 0.558803,2.860685 1.955103,7.802168l48.038662,18.725864c-0.558803,-0.779887 -0.838205,-1.560434 -1.117607,-2.860685z"/>
  <path stroke="null" id="svg_35" fill="#e5e5e5" d="m72.391535,250.224673l29.605238,-9.882966c0.279402,11.703582 5.306506,31.729697 13.964414,53.83661c8.657908,21.846731 18.992227,40.05223 27.370734,49.155309l-29.605238,9.882966c-20.109125,6.762099 -45.524756,-10.923696 -56.975972,-39.272343c-11.451217,-28.608169 -4.4683,-56.957477 15.640824,-63.719576z"/>
  <path stroke="null" id="svg_36" fill="#ffffff" d="m272.085775,241.382436c-23.739929,-59.55864 -31.560342,-113.135068 -19.550321,-127.699335c-1.675701,1.560434 -3.630804,3.641232 -5.865309,6.762099c-19.829723,27.308578 -53.065766,86.086672 -167.017001,124.058763l0,0.260182c-6.982207,2.340981 -3.072001,28.348647 8.657908,57.738024c11.730618,29.648899 26.81193,51.755812 33.794137,49.415492c113.951235,-37.972092 114.315258,-35.126827 148.947601,-26.023748c10.892413,2.860685 27.847852,-4.384123 27.847852,-4.384123c-19.054916,-34.039634 -0.282338,-14.067459 -26.814866,-80.127355l-0.000001,0.000001z"/>
  <path stroke="null" id="svg_37" fill="#cccccc" d="m247.228239,138.910221c2.792599,-15.865179 3.630804,-18.986046 4.747702,-23.927529l0.279402,-0.780547c-1.3963,1.560434 -3.351403,3.38105 -5.306506,6.241734c-20.109125,27.308578 -53.345168,86.086672 -167.296403,124.058763l0,0.260182c-2.792599,1.040069 -3.910206,5.72203 -3.351403,12.743651l9.216712,-2.600503c105.013925,-34.590382 141.043276,-87.12674 161.710495,-115.995753l0.000001,0.000002z"/>
  <path stroke="null" id="svg_38" fill="#cccccc" d="m261.472055,105.880273c-22.064228,7.542646 -18.992227,68.141355 6.982207,135.241981c25.695032,67.100626 39.006006,34.823547 51.132346,13.616305c12.12634,-21.207242 43.003077,-33.761655 45.857252,-38.700594s-82.186979,-117.700338 -103.971805,-110.157692z"/>
  <path stroke="null" id="svg_39" fill="#ffffff" d="m296.104397,267.12992c-25.695032,-67.100626 -28.767033,-127.699335 -6.982207,-135.241981c4.747702,-1.560434 10.054208,-0.780547 15.919517,2.340981c-16.198919,-21.066844 -32.118436,-32.250062 -43.569652,-28.348647c-22.064228,7.542646 -18.992227,68.141355 6.982207,135.241981c20.388527,56.203576 8.994243,67.589236 30.779069,78.773114c-0.745648,-37.078395 19.92869,-50.235663 -3.128934,-52.765447l0,-0.000001z"/>
  <path stroke="null" id="svg_40" fill="#000000" d="m262.030858,213.813675c-1.116898,0.260182 -1.955103,0.780547 -2.792599,1.040069c2.513907,8.582715 5.585907,17.16543 8.93731,26.267849c5.027104,13.003833 10.613011,25.487963 16.478321,36.931362c0.838205,-0.260182 1.675701,-0.520365 2.234505,-0.780547c18.712825,-6.501917 28.487631,-25.748145 21.784826,-43.433279c-6.982916,-17.424952 -27.650135,-26.527371 -46.642362,-20.025454l-0.000001,0z"/>
  <path stroke="null" id="svg_41" fill="#000000" d="m296.104397,267.12992c-7.54101,-19.246228 -12.847516,-37.972092 -16.478321,-55.136861c-5.585907,-0.780547 -11.730618,-0.260182 -17.595218,1.820616c-1.116898,0.260182 -1.955103,0.780547 -2.792599,1.040069c2.513907,8.582715 5.585907,17.16543 8.93731,26.267849c5.027104,13.003833 10.613011,25.487963 16.478321,36.931362c0.838205,-0.260182 1.675701,-0.520365 2.234505,-0.780547c4.189608,-1.300251 7.820412,-3.38105 10.892413,-5.981552c-0.558803,-1.299591 -1.117607,-2.600503 -1.67641,-4.160936l-0.000001,0z"/>
  <g stroke="null" transform="matrix(0.7091414789045779,0,0,0.6603612340109546,-1122.0680029010339,-1018.6633174676413) " id="svg_42"/>
  <g stroke="null" transform="matrix(0.7091414789045779,0,0,0.6603612340109546,-1122.0680029010339,-1018.6633174676413) " id="svg_43"/>
  <g stroke="null" transform="matrix(0.7091414789045779,0,0,0.6603612340109546,-1122.0680029010339,-1018.6633174676413) " id="svg_44"/>
  <g stroke="null" transform="matrix(0.7091414789045779,0,0,0.6603612340109546,-1122.0680029010339,-1018.6633174676413) " id="svg_45"/>
  <g stroke="null" transform="matrix(0.7091414789045779,0,0,0.6603612340109546,-1122.0680029010339,-1018.6633174676413) " id="svg_46"/>
  <g stroke="null" transform="matrix(0.7091414789045779,0,0,0.6603612340109546,-1122.0680029010339,-1018.6633174676413) " id="svg_47"/>
  <g stroke="null" transform="matrix(0.7091414789045779,0,0,0.6603612340109546,-1122.0680029010339,-1018.6633174676413) " id="svg_48"/>
  <g stroke="null" transform="matrix(0.7091414789045779,0,0,0.6603612340109546,-1122.0680029010339,-1018.6633174676413) " id="svg_49"/>
  <g stroke="null" transform="matrix(0.7091414789045779,0,0,0.6603612340109546,-1122.0680029010339,-1018.6633174676413) " id="svg_50"/>
  <g stroke="null" transform="matrix(0.7091414789045779,0,0,0.6603612340109546,-1122.0680029010339,-1018.6633174676413) " id="svg_51"/>
  <g stroke="null" transform="matrix(0.7091414789045779,0,0,0.6603612340109546,-1122.0680029010339,-1018.6633174676413) " id="svg_52"/>
  <g stroke="null" transform="matrix(0.7091414789045779,0,0,0.6603612340109546,-1122.0680029010339,-1018.6633174676413) " id="svg_53"/>
  <g stroke="null" transform="matrix(0.7091414789045779,0,0,0.6603612340109546,-1122.0680029010339,-1018.6633174676413) " id="svg_54"/>
  <g stroke="null" transform="matrix(0.7091414789045779,0,0,0.6603612340109546,-1122.0680029010339,-1018.6633174676413) " id="svg_55"/>
  <g stroke="null" transform="matrix(0.7091414789045779,0,0,0.6603612340109546,-1122.0680029010339,-1018.6633174676413) " id="svg_56"/>
 </g>
</svg>