<svg width="512" height="512" xmlns="http://www.w3.org/2000/svg">
 <g>
  <title>background</title>
  <rect x="-1" y="-1" width="514" height="514" id="canvas_background" fill="none"/>
 </g>

 <g>
  <title>Layer 1</title>
  <circle cx="256" cy="256" r="256" fill="#000000" id="svg_1"/>
  <rect x="396.394" y="162.883" transform="matrix(-0.3905,-0.9206,0.9206,-0.3905,382.1416,650.4584) " width="20" height="71.69" fill="#ffffff" id="svg_10"/>
  <rect x="352.076" y="117.651" transform="matrix(-0.9167,-0.3996,0.3996,-0.9167,635.4045,425.6835) " width="20" height="57.912" fill="#ffffff" id="svg_12"/>
  <rect x="382.282" y="258.281" transform="matrix(-0.972,-0.2348,0.2348,-0.972,747.9791,625.6229) " width="57.909" height="19.999" fill="#ffffff" id="svg_13"/>
  <g id="svg_14"/>
  <g id="svg_15"/>
  <g id="svg_16"/>
  <g id="svg_17"/>
  <g id="svg_18"/>
  <g id="svg_19"/>
  <g id="svg_20"/>
  <g id="svg_21"/>
  <g id="svg_22"/>
  <g id="svg_23"/>
  <g id="svg_24"/>
  <g id="svg_25"/>
  <g id="svg_26"/>
  <g id="svg_27"/>
  <g id="svg_28"/>
  <path d="m146.12452,337.091891l54.741467,-16.124701c6.144711,15.604996 -8.657908,20.546479 -5.865309,39.792047c1.116898,7.282464 6.982207,5.201665 10.33361,13.264016l0.838205,19.765932l17.595218,13.003833c2.513907,6.241734 -5.865309,13.524198 -5.865309,13.524198s-18.433424,19.50575 -31.560342,17.425612c-18.432714,-2.600503 -40.217541,-100.650939 -40.217541,-100.650939l0.000001,0.000002z" fill="#ffffff" id="svg_33" stroke="null"/>
  <path d="m195.000678,360.759238c-2.513907,-18.465681 10.33361,-23.667347 6.423404,-37.451727l-34.073539,7.542646l-21.226023,6.241734c0,0 0.558803,2.860685 1.955103,7.802168l48.038662,18.725864c-0.558803,-0.779887 -0.838205,-1.560434 -1.117607,-2.860685z" fill="#e5e5e5" id="svg_34" stroke="null"/>
  <path d="m72.391535,250.224673l29.605238,-9.882966c0.279402,11.703582 5.306506,31.729697 13.964414,53.83661c8.657908,21.846731 18.992227,40.05223 27.370734,49.155309l-29.605238,9.882966c-20.109125,6.762099 -45.524756,-10.923696 -56.975972,-39.272343c-11.451217,-28.608169 -4.4683,-56.957477 15.640824,-63.719576z" fill="#e5e5e5" id="svg_35" stroke="null"/>
  <path d="m272.085775,241.382436c-23.739929,-59.55864 -31.560342,-113.135068 -19.550321,-127.699335c-1.675701,1.560434 -3.630804,3.641232 -5.865309,6.762099c-19.829723,27.308578 -53.065766,86.086672 -167.017001,124.058763l0,0.260182c-6.982207,2.340981 -3.072001,28.348647 8.657908,57.738024c11.730618,29.648899 26.81193,51.755812 33.794137,49.415492c113.951235,-37.972092 180.981415,-11.703582 215.613758,-2.600503c10.892413,2.860685 17.037124,-0.780547 17.037124,-0.780547c-18.154022,6.500596 -56.137767,-41.09428 -82.670295,-107.154176l-0.000001,0.000001z" fill="#ffffff" id="svg_36" stroke="null"/>
  <path d="m247.228239,138.910221c2.792599,-15.865179 3.630804,-18.986046 4.747702,-23.927529l0.279402,-0.780547c-1.3963,1.560434 -3.351403,3.38105 -5.306506,6.241734c-20.109125,27.308578 -53.345168,86.086672 -167.296403,124.058763l0,0.260182c-2.792599,1.040069 -3.910206,5.72203 -3.351403,12.743651l9.216712,-2.600503c105.013925,-34.590382 141.043276,-87.12674 161.710495,-115.995753l0.000001,0.000002z" fill="#cccccc" id="svg_37" stroke="null"/>
  <path d="m261.472055,105.880273c-22.064228,7.542646 -18.992227,68.141355 6.982207,135.241981c25.695032,67.100626 64.516273,115.476048 86.580501,107.67322c22.064228,-7.542646 18.992227,-68.141355 -6.982207,-135.241981s-64.795675,-115.215866 -86.580501,-107.67322z" fill="#cccccc" id="svg_38" stroke="null"/>
  <path d="m296.104397,267.12992c-25.695032,-67.100626 -28.767033,-127.699335 -6.982207,-135.241981c4.747702,-1.560434 10.054208,-0.780547 15.919517,2.340981c-16.198919,-21.066844 -32.118436,-32.250062 -43.569652,-28.348647c-22.064228,7.542646 -18.992227,68.141355 6.982207,135.241981c20.388527,53.056723 48.876158,94.149022 70.660984,105.3329c-15.081312,-19.246228 -30.442735,-47.075171 -43.010849,-79.325233l0,-0.000001z" fill="#ffffff" id="svg_39" stroke="null"/>
  <path d="m262.030858,213.813675c-1.116898,0.260182 -1.955103,0.780547 -2.792599,1.040069c2.513907,8.582715 5.585907,17.16543 8.93731,26.267849c5.027104,13.003833 10.613011,25.487963 16.478321,36.931362c0.838205,-0.260182 1.675701,-0.520365 2.234505,-0.780547c18.712825,-6.501917 28.487631,-25.748145 21.784826,-43.433279c-6.982916,-17.424952 -27.650135,-26.527371 -46.642362,-20.025454l-0.000001,0z" fill="#000000" id="svg_40" stroke="null"/>
  <path d="m296.104397,267.12992c-7.54101,-19.246228 -12.847516,-37.972092 -16.478321,-55.136861c-5.585907,-0.780547 -11.730618,-0.260182 -17.595218,1.820616c-1.116898,0.260182 -1.955103,0.780547 -2.792599,1.040069c2.513907,8.582715 5.585907,17.16543 8.93731,26.267849c5.027104,13.003833 10.613011,25.487963 16.478321,36.931362c0.838205,-0.260182 1.675701,-0.520365 2.234505,-0.780547c4.189608,-1.300251 7.820412,-3.38105 10.892413,-5.981552c-0.558803,-1.299591 -1.117607,-2.600503 -1.67641,-4.160936l-0.000001,0z" fill="#000000" id="svg_41" stroke="null"/>
  <g id="svg_42" transform="matrix(0.7091414789045779,0,0,0.6603612340109546,-1122.0680029010339,-1018.6633174676413) " stroke="null"/>
  <g id="svg_43" transform="matrix(0.7091414789045779,0,0,0.6603612340109546,-1122.0680029010339,-1018.6633174676413) " stroke="null"/>
  <g id="svg_44" transform="matrix(0.7091414789045779,0,0,0.6603612340109546,-1122.0680029010339,-1018.6633174676413) " stroke="null"/>
  <g id="svg_45" transform="matrix(0.7091414789045779,0,0,0.6603612340109546,-1122.0680029010339,-1018.6633174676413) " stroke="null"/>
  <g id="svg_46" transform="matrix(0.7091414789045779,0,0,0.6603612340109546,-1122.0680029010339,-1018.6633174676413) " stroke="null"/>
  <g id="svg_47" transform="matrix(0.7091414789045779,0,0,0.6603612340109546,-1122.0680029010339,-1018.6633174676413) " stroke="null"/>
  <g id="svg_48" transform="matrix(0.7091414789045779,0,0,0.6603612340109546,-1122.0680029010339,-1018.6633174676413) " stroke="null"/>
  <g id="svg_49" transform="matrix(0.7091414789045779,0,0,0.6603612340109546,-1122.0680029010339,-1018.6633174676413) " stroke="null"/>
  <g id="svg_50" transform="matrix(0.7091414789045779,0,0,0.6603612340109546,-1122.0680029010339,-1018.6633174676413) " stroke="null"/>
  <g id="svg_51" transform="matrix(0.7091414789045779,0,0,0.6603612340109546,-1122.0680029010339,-1018.6633174676413) " stroke="null"/>
  <g id="svg_52" transform="matrix(0.7091414789045779,0,0,0.6603612340109546,-1122.0680029010339,-1018.6633174676413) " stroke="null"/>
  <g id="svg_53" transform="matrix(0.7091414789045779,0,0,0.6603612340109546,-1122.0680029010339,-1018.6633174676413) " stroke="null"/>
  <g id="svg_54" transform="matrix(0.7091414789045779,0,0,0.6603612340109546,-1122.0680029010339,-1018.6633174676413) " stroke="null"/>
  <g id="svg_55" transform="matrix(0.7091414789045779,0,0,0.6603612340109546,-1122.0680029010339,-1018.6633174676413) " stroke="null"/>
  <g id="svg_56" transform="matrix(0.7091414789045779,0,0,0.6603612340109546,-1122.0680029010339,-1018.6633174676413) " stroke="null"/>
  <ellipse ry="35.5" rx="35.5" id="svg_2" cy="54" cx="447" stroke-opacity="null" stroke-width="null" stroke="null" fill="#ff0000"/>
 </g>
</svg>