<svg width="512" height="512" xmlns="http://www.w3.org/2000/svg">
 <g>
  <title>background</title>
  <rect x="-1" y="-1" width="1139.782173" height="1139.782173" id="canvas_background" fill="none"/>
 </g>

 <g>
  <title>Layer 1</title>
  <circle cx="256" cy="256" r="256" fill="#060606" id="svg_2"/>
  <path d="m256,93l0,0c62.961,0 114,51.039 114,114l0,196l-228,0l0,-196c0,-62.961 51.039,-114 114,-114z" fill="#7f7f7f" id="svg_4" stroke="#999999"/>
  <polygon points="222.167,403 217.167,275 171.156,243.507 180.156,188.507 241.833,227 241.833,312   270.167,312 270.167,227 331.844,188.507 340.844,243.507 294.833,275 289.833,403 " class="active-path" fill="#00007f" id="svg_6" stroke="null"/>
  <polygon points="266.8080139160156,163.8148148059845 245.19200134277344,163.8148148059845 234.5,60.8148148059845 277.5,60.8148148059845 " fill="#00007f" id="svg_8"/>
 </g>
</svg>