<svg width="512" height="512" xmlns="http://www.w3.org/2000/svg">
 <g>
  <title>background</title>
  <rect x="-1" y="-1" width="1139.782173" height="1139.782173" id="canvas_background" fill="none"/>
 </g>

 <g>
  <title>Layer 1</title>
  <path stroke="null" id="svg_17" d="m505.694082,402.010102c0,62.131181 -50.848923,113.611302 -112.218313,113.611302c-61.36939,0 -112.218313,-51.480121 -112.218313,-113.611302c0,-62.131181 50.848923,-113.611302 112.218313,-113.611302c63.122801,0 112.218313,49.704945 112.218313,113.611302z" fill="#000000"/>
  <path stroke="#999999" d="m394.094927,323.183653l0,0c31.40167,0 56.857267,24.901232 56.857267,55.619044l0,95.625726l-113.714533,0l0,-95.625726c0,-30.717813 25.455597,-55.619044 56.857267,-55.619044z" fill="#7f7f7f" id="svg_20"/>
  <polygon stroke="null" points="377.2207946777344,474.4284836053848 374.72711181640625,411.9789901971817 351.7791748046875,396.6140304803848 356.2679443359375,369.7802597284317 387.0292053222656,388.56047213077545 387.0292053222656,430.0307785272598 401.16070556640625,430.0307785272598 401.16070556640625,388.56047213077545 431.9219970703125,369.7802597284317 436.41070556640625,396.6140304803848 413.4628601074219,411.9789901971817 410.9690856933594,474.4284836053848 " class="active-path" fill="#ffffff" id="svg_21"/>
  <polygon stroke="null" points="399.4854431152344,357.7332626581192 388.7044982910156,357.7332626581192 383.3718566894531,307.48100435733795 404.81805419921875,307.48100435733795 " fill="#ffffff" id="svg_22"/>
  <path stroke="null" id="svg_14" d="m256.709708,394.909393c0,-72.78224 59.615979,-131.363068 135.012658,-131.363068c45.58869,0 85.917146,23.077296 110.464902,56.805651c5.260233,-19.526943 8.767056,-40.829062 8.767056,-63.906357c0,-142.014127 -113.971724,-257.400606 -254.244616,-257.400606s-255.998027,115.386479 -255.998027,257.400606c0,140.238951 113.971724,255.625429 254.244616,257.400606c21.040934,0 42.081867,-3.550353 61.36939,-8.875883c-36.821634,-23.077296 -59.615979,-63.906357 -59.615979,-110.060949z" fill="#000000"/>
  <path stroke="#999999" d="m256,93l0,0c62.961,0 114,51.039 114,114c0,65.333333 -102.684333,75.633233 -102.684333,140.966567l-125.315667,55.033433l0,-196c0,-62.961 51.039,-114 114,-114z" fill="#7f7f7f" id="svg_4"/>
  <path id="svg_6" d="m217.167,275.671139l-46.011,-32.164139l9,-55l61.677,38.493c0,28.333333 0,56.666667 0,85l28.334,0l0,-85l61.677,-38.493l9,55l-46.011,31.493" stroke-opacity="null" stroke-linecap="null" stroke-linejoin="null" stroke-width="null" stroke="null" fill="#ffffff"/>
  <polygon points="266.8080139160156,163.8148148059845 245.19200134277344,163.8148148059845 234.5,60.8148148059845 277.5,60.8148148059845 " fill="#ffffff" id="svg_8"/>
  <linearGradient gradientTransform="translate(-876.398 -1619.96)" y2="1644.353" x2="904.291" y1="1627.722" x1="880.54" gradientUnits="userSpaceOnUse" id="svg_12">
   <stop stop-color="#666" offset="0"/>
   <stop offset="1"/>
  </linearGradient>
  <linearGradient y2="0.864138" x2="1.018247" y1="0.212448" x1="0.09079" id="svg_11">
   <stop stop-color="#666" offset="0"/>
   <stop offset="1"/>
  </linearGradient>
  <linearGradient stroke="null" transform="translate(0,-0.09480460733175278) translate(-0.09505243599414825,0) translate(0,-0.09480460733175278) translate(2.820582151412964,2.313117742538452) translate(5.29816198348999,5.512697219848633) translate(-6.867237567901611,0) translate(0,-6.96723747253418) " y2="0.783126" x2="0.912656" y1="0.210079" x1="0.094296" id="svg_10">
   <stop stroke="null" stop-color="#666" offset="0"/>
   <stop stroke="null" offset="1"/>
  </linearGradient>
  <path id="svg_26" d="m217.409485,273.82489l24.832159,0c0,25.950724 0.970872,57.726681 0.970872,84.001029c-16.367986,7.982726 -17.525645,5.933107 -25.803031,12.621336l0,-96.622365z" stroke-opacity="null" stroke-linecap="null" stroke-linejoin="null" stroke-width="null" stroke="null" fill="#ffffff"/>
  <path id="svg_27" d="m269.758362,274.496033l24.832159,0c0.479083,38.275293 -0.354607,21.6269 -8.651539,38.844011c-4.713788,3.586533 -7.887187,7.941841 -18.445988,27.038309l2.265368,-65.88232z" stroke-opacity="null" stroke-linecap="null" stroke-linejoin="null" stroke-width="null" stroke="null" fill="#ffffff"/>
  <path id="svg_28" d="m242.350845,312.072327l26.077589,0c0.242737,10.627274 0.82191,22.937543 -1.461352,36.53658c-9.946645,6.057222 -32.534985,14.856255 -48.470876,21.477264l23.854639,-58.013844z" stroke-linecap="null" stroke-linejoin="null" stroke-width="null" stroke="#ffffff" fill="#ffffff"/>
 </g>
</svg>