<svg width="512" height="512" xmlns="http://www.w3.org/2000/svg">
 <g>
  <title>background</title>
  <rect x="-1" y="-1" width="611.533975" height="611.533975" id="canvas_background" fill="none"/>
 </g>

 <g>
  <title>Layer 1</title>
  <path fill="#000000" d="m261.818244,365.494229c0,-22.746448 17.431027,-40.243716 38.348258,-41.993443c-1.743103,-3.499454 -1.743103,-6.998907 -1.743103,-10.498361c0,-50.742077 41.834464,-92.73552 92.384441,-92.73552s92.384441,41.993443 92.384441,92.73552c0,3.499454 -1.743103,6.998907 -1.743103,10.498361l15.687924,0c5.229308,-20.996722 8.715513,-43.74317 8.715513,-68.239345c0,-139.978144 -113.301672,-253.710385 -252.749885,-253.710385s-252.749885,115.481969 -252.749885,255.460112c0,138.228417 113.301672,251.960659 252.749885,253.710385l8.715513,0l0,-145.227324l0.000001,0z" id="svg_1" stroke="null"/>
  <g id="svg_26" transform="matrix(-0.9670904733178274,0,0,0.9718947451397795,35680.39286864996,-35849.59056531777) " stroke="null">
   <title>background</title>
   <rect fill="none" id="svg_24" height="402" width="582" y="36892.27064" x="36380.477631" stroke="null"/>
  </g>
  <path id="svg_21" fill="#7f7f7f" d="m247.539942,97.563107l0,0c-60.888972,0 -110.248306,49.604544 -110.248306,110.796001l0,190.491367c45.699049,-23.809875 116.637397,-52.084118 162.336446,-75.893993c-10.338222,-79.7685 60.412666,-88.244496 62.491873,-108.409961c-5.486804,-70.120152 -53.691021,-116.983414 -114.580013,-116.983414z" stroke="#999999"/>
  <path id="svg_20" fill="#7f7f7f" d="m137.242819,207.967512c0,-61.190493 49.359321,-110.796001 110.248314,-110.796001l0,0l0,301.287371l-110.248314,0l0,-190.49137z"/>
  <path fill="#00007f" stroke="null" stroke-width="null" stroke-linejoin="null" stroke-linecap="null" stroke-opacity="null" d="m262.354881,398.109172c-9.943674,-89.800567 22.11246,-21.601863 24.835396,-123.402374l44.497437,-30.607132l-8.703857,-53.454224l-59.645874,37.410339c0,27.537033 0,55.074066 0,82.611099l-27.403381,0l0,-82.611099l-59.646118,-37.410339l-8.703796,53.454224l44.497437,30.607132l4.835449,124.402374" id="svg_19"/>
  <polygon id="svg_17" fill="#00007f" points="238.18338012695312,165.9808304309845 259.0890808105469,165.9808304309845 269.4286804199219,65.87565922737122 227.84378051757812,65.87565922737122 " stroke="null"/>
  <path stroke="null" fill="#00007f" d="m481.798098,355.280538l-18.263235,0l0,-26.614729c0,-38.258672 -31.545587,-69.863662 -69.732352,-69.863662c-38.186764,0 -69.732352,31.60499 -69.732352,69.863662l0,26.614729l-18.263235,0c-9.961764,0 -18.263235,8.317103 -18.263235,18.297626l0,118.102857c0,9.980524 8.30147,18.297626 18.263235,18.297626l174.33088,0c9.961764,0 18.263235,-8.317103 18.263235,-18.297626l0,-118.102857c1.660294,-9.980524 -6.641176,-18.297626 -16.602941,-18.297626zm-74.713234,86.497867l0,31.60499l-26.564706,0l0,-31.60499c-9.961764,-4.990261 -14.942647,-14.970785 -14.942647,-24.951308c0,-16.634205 13.282353,-29.94157 29.885294,-29.94157s29.885294,13.307364 29.885294,29.94157c-1.660294,11.643944 -8.30147,21.624467 -18.263235,24.951308zm21.583823,-86.497867l-69.732352,0l0,-24.951308c0,-18.297626 14.942647,-34.931831 34.866176,-34.931831c18.263235,0 34.866176,14.970785 34.866176,34.931831l0,24.951308z" id="svg_2"/>
 </g>
</svg>