<svg width="512" height="512" xmlns="http://www.w3.org/2000/svg">
 <g>
  <title>background</title>
  <rect x="-1" y="-1" width="514" height="514" id="canvas_background" fill="none"/>
 </g>

 <g>
  <title>Layer 1</title>
  <path stroke="null" d="m255.700006,2c141.278363,0 255.700019,114.198117 255.700019,255.189553c0,141.002356 -114.421655,255.200473 -255.700019,255.200473c-141.272893,0 -255.700019,-114.198117 -255.700019,-255.200473c0,-140.991436 114.427126,-255.189553 255.700019,-255.189553z" id="path4" fill-rule="evenodd" fill="#000000" clip-rule="evenodd"/>
  <g id="Layer_1"/>
  <g id="svg_19" transform="matrix(0.37970203204647146,0,0,0.38556134787409707,-733.1522805309182,-743.4251847782114) " stroke="null"/>
  <g id="svg_20" transform="matrix(0.37970203204647146,0,0,0.38556134787409707,-733.1522805309182,-743.4251847782114) " stroke="null"/>
  <g id="svg_21" transform="matrix(0.37970203204647146,0,0,0.38556134787409707,-733.1522805309182,-743.4251847782114) " stroke="null"/>
  <g id="svg_22" transform="matrix(0.37970203204647146,0,0,0.38556134787409707,-733.1522805309182,-743.4251847782114) " stroke="null"/>
  <g id="svg_23" transform="matrix(0.37970203204647146,0,0,0.38556134787409707,-733.1522805309182,-743.4251847782114) " stroke="null"/>
  <g id="svg_24" transform="matrix(0.37970203204647146,0,0,0.38556134787409707,-733.1522805309182,-743.4251847782114) " stroke="null"/>
  <g id="svg_25" transform="matrix(0.37970203204647146,0,0,0.38556134787409707,-733.1522805309182,-743.4251847782114) " stroke="null"/>
  <g id="svg_26" transform="matrix(0.37970203204647146,0,0,0.38556134787409707,-733.1522805309182,-743.4251847782114) " stroke="null"/>
  <g id="svg_27" transform="matrix(0.37970203204647146,0,0,0.38556134787409707,-733.1522805309182,-743.4251847782114) " stroke="null"/>
  <g id="svg_28" transform="matrix(0.37970203204647146,0,0,0.38556134787409707,-733.1522805309182,-743.4251847782114) " stroke="null"/>
  <g id="svg_29" transform="matrix(0.37970203204647146,0,0,0.38556134787409707,-733.1522805309182,-743.4251847782114) " stroke="null"/>
  <g id="svg_30" transform="matrix(0.37970203204647146,0,0,0.38556134787409707,-733.1522805309182,-743.4251847782114) " stroke="null"/>
  <g id="svg_31" transform="matrix(0.37970203204647146,0,0,0.38556134787409707,-733.1522805309182,-743.4251847782114) " stroke="null"/>
  <g id="svg_32" transform="matrix(0.37970203204647146,0,0,0.38556134787409707,-733.1522805309182,-743.4251847782114) " stroke="null"/>
  <g id="svg_33" transform="matrix(0.37970203204647146,0,0,0.38556134787409707,-733.1522805309182,-743.4251847782114) " stroke="null"/>
  <g id="svg_1">
   <path d="m242.235,415.465c-30.601,-17.483 -56.153,-40.34 -76.324,-68.594c-41.366,-56.821 -54.808,-127.099 -53.133,-196.041l0,-0.993l0.334,-1.021c1.355,-14.12 11.767,-25.558 25.891,-27.232c16.816,-2.357 33.292,-6.38 49.435,-12.444c18.829,-6.729 36.981,-15.799 54.465,-25.558c9.424,-5.378 20.175,-5.378 29.599,0c17.483,9.758 35.975,18.829 54.809,25.558c15.799,6.064 32.28,10.087 49.42,12.444c14.459,2.019 25.563,14.458 25.892,29.246c1.351,68.942 -11.767,139.22 -53.123,196.041c-20.505,28.254 -46.062,51.11 -76.329,68.594c-9.749,5.716 -21.851,5.716 -30.936,0zm138.194,-264.287c0,-4.037 -3.021,-7.401 -6.724,-7.735c-18.494,-2.691 -36.313,-7.067 -54.13,-13.452c-17.488,-6.389 -36.981,-15.465 -57.833,-27.232c-2.691,-1.346 -5.388,-1.346 -8.079,0c-20.843,11.767 -40.006,20.843 -57.828,27.232c-17.484,6.385 -35.64,10.76 -53.806,13.452c-3.693,0.334 -6.723,3.698 -7.057,7.735c-1.68,74.3 14.458,135.164 48.752,182.576c18.5,25.892 42.039,46.739 69.939,62.548c2.357,1.68 5.722,1.68 8.079,0c27.909,-16.147 51.438,-36.99 69.938,-62.548c34.291,-47.413 50.433,-108.276 48.749,-182.576z" id="path8" fill-rule="evenodd" fill="#7f0000" clip-rule="evenodd"/>
   <path d="m380.429,151.178c0,-4.037 -3.021,-7.401 -6.724,-7.735c-18.494,-2.691 -36.313,-7.067 -54.13,-13.452c-17.488,-6.389 -36.981,-15.465 -57.833,-27.232c-2.691,-1.346 -5.388,-1.346 -8.079,0c-20.843,11.767 -40.006,20.843 -57.828,27.232c-17.484,6.385 -35.64,10.76 -53.806,13.452c-3.693,0.334 -6.723,3.698 -7.057,7.735c-1.68,74.3 14.458,135.164 48.752,182.576c18.5,25.892 42.039,46.739 69.939,62.548c2.357,1.68 5.722,1.68 8.079,0c27.909,-16.147 51.438,-36.99 69.938,-62.548c34.291,-47.413 50.433,-108.276 48.749,-182.576z" id="path10" fill-rule="evenodd" fill="#ffffff" clip-rule="evenodd"/>
   <polygon points="234.4618377685547,275.3930358886719 298.86846923828125,220.84878540039062 312.3912048339844,183.4108428955078 275.68235778808594,197.30487060546875 221.967041015625,262.70538330078125 " fill="#191919" id="svg_7" stroke="null"/>
   <polygon points="228.0517578125,268.8836364746094 234.4618377685547,275.3930358886719 298.86846923828125,220.84878540039062 312.3912048339844,183.4108428955078 312.3912048339844,183.4108428955078 " fill="#000000" id="svg_8" stroke="null"/>
   <rect x="-3138.149653" y="365.4223" transform="matrix(-0.26848730686006,-0.27263042908177404,0.26848730686006,-0.27263042908177404,-724.5303105488326,-459.5024349399008) " width="55.429" height="100.729" fill="#FF9451" id="svg_9" stroke="null"/>
   <rect x="3433.576653" y="270.4317" transform="matrix(0.26848730686006,0.27263042908177404,-0.26848730686006,0.27263042908177404,-613.6927054206495,-748.5775567382575) " width="28.323" height="100.729" fill="#F7674F" id="svg_10" stroke="null"/>
   <rect x="-3120.431653" y="364.6793" transform="matrix(-0.26848730686006,-0.27263042908177404,0.26848730686006,-0.27263042908177404,-691.8947310434223,-473.2358602582326) " width="91.189" height="30.994" fill="#FFDC00" id="svg_11" stroke="null"/>
   <rect x="3466.583653" y="276.0037" transform="matrix(0.26848730686006,0.27263042908177404,-0.26848730686006,0.27263042908177404,-616.8932518189724,-763.3215769055021) " width="46.2" height="30.994" fill="#FFC000" id="svg_12" stroke="null"/>
   <polygon points="291.753662109375,262.6239929199219 238.0378875732422,197.22354125976562 201.1692352294922,183.49215698242188 214.85179138183594,220.76748657226562 279.25877380371094,275.3116760253906 " fill="#000000" id="svg_13" stroke="null"/>
   <polygon points="201.1692352294922,183.49215698242188 201.1692352294922,183.49215698242188 214.85179138183594,220.76748657226562 279.25877380371094,275.3116760253906 285.4938659667969,268.9799499511719 " fill="#191919" id="svg_14" stroke="null"/>
   <rect x="266.3367" y="-2961.382653" transform="matrix(-0.26848730686006,0.27263042908177404,-0.26848730686006,-0.27263042908177404,-411.1159757933765,-598.7410141765041) " width="55.429" height="100.729" fill="#FF9451" id="svg_15" stroke="null"/>
   <rect x="270.4057" y="-2951.555653" transform="matrix(-0.26848730686006,0.27263042908177404,-0.26848730686006,-0.27263042908177404,-414.83606848214856,-589.5984678273092) " width="27.671" height="100.729" fill="#F7674F" id="svg_16" stroke="null"/>
   <rect x="212.8417" y="-2962.116653" transform="matrix(-0.26848730686006,0.27263042908177404,-0.26848730686006,-0.27263042908177404,-443.76021250511724,-612.4638365577694) " width="91.189" height="30.994" fill="#FFDC00" id="svg_17" stroke="null"/>
   <rect x="219.5207" y="-2945.986653" transform="matrix(-0.26848730686006,0.27263042908177404,-0.26848730686006,-0.27263042908177404,-449.8907296337269,-597.4468389562297) " width="45.552" height="30.994" fill="#FFC000" id="svg_18" stroke="null"/>
  </g>
  <ellipse ry="38" rx="38.5" id="svg_2" cy="65.5" cx="461" stroke-opacity="null" stroke-width="null" stroke="null" fill="#d40000"/>
 </g>
</svg>