<svg width="467.39999" height="467.39001" xmlns="http://www.w3.org/2000/svg">

 <g>
  <title>background</title>
  <rect fill="none" id="canvas_background" height="514" width="514" y="-1" x="-1"/>
 </g>
 <g>
  <title>Layer 1</title>
  <path clip-rule="evenodd" fill="#000000" fill-rule="evenodd" id="path4" d="m233.7,0c129.123,0 233.7,104.577 233.7,233.69c0,129.123 -104.577,233.7 -233.7,233.7c-129.118,0 -233.7,-104.577 -233.7,-233.7c0,-129.113 104.582,-233.69 233.7,-233.69z"/>
  <path clip-rule="evenodd" fill="#b2b2b2" fill-rule="evenodd" id="path8" d="m218.235,399.465c-30.601,-17.483 -56.153,-40.34 -76.324,-68.594c-41.366,-56.821 -54.808,-127.099 -53.133,-196.041l0,-0.993l0.334,-1.021c1.355,-14.12 11.767,-25.558 25.891,-27.232c16.816,-2.357 33.292,-6.38 49.435,-12.444c18.829,-6.729 36.981,-15.799 54.465,-25.558c9.424,-5.378 20.175,-5.378 29.599,0c17.483,9.758 35.975,18.829 54.809,25.558c15.799,6.064 32.28,10.087 49.42,12.444c14.459,2.019 25.563,14.458 25.892,29.246c1.351,68.942 -11.767,139.22 -53.123,196.041c-20.505,28.254 -46.062,51.11 -76.329,68.594c-9.749,5.716 -21.851,5.716 -30.936,0zm138.194,-264.287c0,-4.037 -3.021,-7.401 -6.724,-7.735c-18.494,-2.691 -36.313,-7.067 -54.13,-13.452c-17.488,-6.389 -36.981,-15.465 -57.833,-27.232c-2.691,-1.346 -5.388,-1.346 -8.079,0c-20.843,11.767 -40.006,20.843 -57.828,27.232c-17.484,6.385 -35.64,10.76 -53.806,13.452c-3.693,0.334 -6.723,3.698 -7.057,7.735c-1.68,74.3 14.458,135.164 48.752,182.576c18.5,25.892 42.039,46.739 69.939,62.548c2.357,1.68 5.722,1.68 8.079,0c27.909,-16.147 51.438,-36.99 69.938,-62.548c34.291,-47.413 50.433,-108.276 48.749,-182.576z"/>
  <path clip-rule="evenodd" fill="#00007f" fill-rule="evenodd" id="path10" d="m356.429,135.178c0,-4.037 -3.021,-7.401 -6.724,-7.735c-18.494,-2.691 -36.313,-7.067 -54.13,-13.452c-17.488,-6.389 -36.981,-15.465 -57.833,-27.232c-2.691,-1.346 -5.388,-1.346 -8.079,0c-20.843,11.767 -40.006,20.843 -57.828,27.232c-17.484,6.385 -35.64,10.76 -53.806,13.452c-3.693,0.334 -6.723,3.698 -7.057,7.735c-1.68,74.3 14.458,135.164 48.752,182.576c18.5,25.892 42.039,46.739 69.939,62.548c2.357,1.68 5.722,1.68 8.079,0c27.909,-16.147 51.438,-36.99 69.938,-62.548c34.291,-47.413 50.433,-108.276 48.749,-182.576z"/>
  <g id="Layer_1"/>
  <polygon stroke="null" id="svg_7" fill="#FFFFFF" points="210.4618377685547,259.3930358886719 274.86846923828125,204.84878540039062 288.3912048339844,167.4108428955078 251.68235778808594,181.30487060546875 197.967041015625,246.70538330078125 "/>
  <polygon stroke="null" id="svg_8" fill="#EFEFEF" points="204.0517578125,252.88363647460938 210.4618377685547,259.3930358886719 274.86846923828125,204.84878540039062 288.3912048339844,167.4108428955078 288.3912048339844,167.4108428955078 "/>
  <rect stroke="null" id="svg_9" fill="#FF9451" height="100.729" width="55.429" transform="matrix(-0.26848730686006,-0.27263042908177404,0.26848730686006,-0.27263042908177404,-724.5303105488326,-459.5024349399008) " y="350.071203" x="-3064.11105"/>
  <rect stroke="null" id="svg_10" fill="#F7674F" height="100.729" width="28.323" transform="matrix(0.26848730686006,0.27263042908177404,-0.26848730686006,0.27263042908177404,-613.6927054206495,-748.5775567382575) " y="285.782797" x="3359.53805"/>
  <rect stroke="null" id="svg_11" fill="#FFDC00" height="30.994" width="91.189" transform="matrix(-0.26848730686006,-0.27263042908177404,0.26848730686006,-0.27263042908177404,-691.8947310434223,-473.2358602582326) " y="349.328203" x="-3046.39305"/>
  <rect stroke="null" id="svg_12" fill="#FFC000" height="30.994" width="46.2" transform="matrix(0.26848730686006,0.27263042908177404,-0.26848730686006,0.27263042908177404,-616.8932518189724,-763.3215769055021) " y="291.354797" x="3392.54505"/>
  <polygon stroke="null" id="svg_13" fill="#E0E0E0" points="267.753662109375,246.62399291992188 214.0378875732422,181.22354125976562 177.1692352294922,167.49215698242188 190.85179138183594,204.76748657226562 255.25877380371094,259.3116760253906 "/>
  <polygon stroke="null" id="svg_14" fill="#C0C0C0" points="177.1692352294922,167.49215698242188 177.1692352294922,167.49215698242188 190.85179138183594,204.76748657226562 255.25877380371094,259.3116760253906 261.4938659667969,252.97994995117188 "/>
  <rect stroke="null" id="svg_15" fill="#FF9451" height="100.729" width="55.429" transform="matrix(-0.26848730686006,0.27263042908177404,-0.26848730686006,-0.27263042908177404,-411.1159757933765,-598.7410141765041) " y="-2887.34405" x="281.687797"/>
  <rect stroke="null" id="svg_16" fill="#F7674F" height="100.729" width="27.671" transform="matrix(-0.26848730686006,0.27263042908177404,-0.26848730686006,-0.27263042908177404,-414.83606848214856,-589.5984678273092) " y="-2877.51705" x="285.756797"/>
  <rect stroke="null" id="svg_17" fill="#FFDC00" height="30.994" width="91.189" transform="matrix(-0.26848730686006,0.27263042908177404,-0.26848730686006,-0.27263042908177404,-443.76021250511724,-612.4638365577694) " y="-2888.07805" x="228.192797"/>
  <rect stroke="null" id="svg_18" fill="#FFC000" height="30.994" width="45.552" transform="matrix(-0.26848730686006,0.27263042908177404,-0.26848730686006,-0.27263042908177404,-449.8907296337269,-597.4468389562297) " y="-2871.94805" x="234.871797"/>
  <g stroke="null" transform="matrix(0.37970203204647146,0,0,0.38556134787409707,-733.1522805309182,-743.4251847782114) " id="svg_19"/>
  <g stroke="null" transform="matrix(0.37970203204647146,0,0,0.38556134787409707,-733.1522805309182,-743.4251847782114) " id="svg_20"/>
  <g stroke="null" transform="matrix(0.37970203204647146,0,0,0.38556134787409707,-733.1522805309182,-743.4251847782114) " id="svg_21"/>
  <g stroke="null" transform="matrix(0.37970203204647146,0,0,0.38556134787409707,-733.1522805309182,-743.4251847782114) " id="svg_22"/>
  <g stroke="null" transform="matrix(0.37970203204647146,0,0,0.38556134787409707,-733.1522805309182,-743.4251847782114) " id="svg_23"/>
  <g stroke="null" transform="matrix(0.37970203204647146,0,0,0.38556134787409707,-733.1522805309182,-743.4251847782114) " id="svg_24"/>
  <g stroke="null" transform="matrix(0.37970203204647146,0,0,0.38556134787409707,-733.1522805309182,-743.4251847782114) " id="svg_25"/>
  <g stroke="null" transform="matrix(0.37970203204647146,0,0,0.38556134787409707,-733.1522805309182,-743.4251847782114) " id="svg_26"/>
  <g stroke="null" transform="matrix(0.37970203204647146,0,0,0.38556134787409707,-733.1522805309182,-743.4251847782114) " id="svg_27"/>
  <g stroke="null" transform="matrix(0.37970203204647146,0,0,0.38556134787409707,-733.1522805309182,-743.4251847782114) " id="svg_28"/>
  <g stroke="null" transform="matrix(0.37970203204647146,0,0,0.38556134787409707,-733.1522805309182,-743.4251847782114) " id="svg_29"/>
  <g stroke="null" transform="matrix(0.37970203204647146,0,0,0.38556134787409707,-733.1522805309182,-743.4251847782114) " id="svg_30"/>
  <g stroke="null" transform="matrix(0.37970203204647146,0,0,0.38556134787409707,-733.1522805309182,-743.4251847782114) " id="svg_31"/>
  <g stroke="null" transform="matrix(0.37970203204647146,0,0,0.38556134787409707,-733.1522805309182,-743.4251847782114) " id="svg_32"/>
  <g stroke="null" transform="matrix(0.37970203204647146,0,0,0.38556134787409707,-733.1522805309182,-743.4251847782114) " id="svg_33"/>
 </g>
</svg>