<svg width="512" height="512" xmlns="http://www.w3.org/2000/svg">
 <g>
  <title>background</title>
  <rect x="-1" y="-1" width="514" height="514" id="canvas_background" fill="none"/>
 </g>

 <g>
  <title>Layer 1</title>
  <path stroke="null" id="svg_76" d="m489.92193,349.20453l-19.21236,0l0,-28.40518c0,-40.83245 -33.185,-74.5636 -73.35631,-74.5636c-40.17131,0 -73.35631,33.73115 -73.35631,74.5636l0,28.40518l-19.21237,0c-10.47947,0 -19.21236,8.87662 -19.21236,19.52856l0,126.04799c0,10.65194 8.73289,19.52856 19.21236,19.52856l183.39078,0c10.47947,0 19.21236,-8.87662 19.21236,-19.52856l0,-126.04799c1.74658,-10.65194 -6.98631,-19.52856 -17.46579,-19.52856l0,0zm-78.59604,92.31683l0,33.73116l-27.94526,0l0,-33.73116c-10.47948,-5.32597 -15.71921,-15.97791 -15.71921,-26.62985c0,-17.75324 13.97263,-31.95583 31.43842,-31.95583s31.43841,14.20259 31.43841,31.95583c-1.74657,12.42726 -8.73289,23.07921 -19.21236,26.62985l0,0zm22.70552,-92.31683l-73.35631,0l0,-26.62986c0,-19.52856 15.71921,-37.2818 36.67816,-37.2818c19.21236,0 36.67815,15.97792 36.67815,37.2818l0,26.62986z" fill="#000000"/>
  <path stroke="null" id="svg_75" d="m262.86669,366.95777c0,-23.07921 17.46579,-40.83245 38.42474,-42.60777c-1.74658,-3.55065 -1.74658,-7.1013 -1.74658,-10.65195c0,-51.48439 41.91789,-94.09216 92.56867,-94.09216s92.56868,42.60777 92.56868,94.09216c0,3.55065 -1.74658,7.1013 -1.74658,10.65195l15.71921,0c5.23973,-21.30389 8.73289,-44.3831 8.73289,-69.23763c0,-142.0259 -113.52762,-257.42195 -253.25392,-257.42195s-253.25392,117.17137 -253.25392,259.19727c0,140.25058 113.52762,255.64663 253.25392,257.42195l8.73289,0l0,-147.35187z" fill="#000000"/>
  <g id="svg_14"/>
  <g id="svg_15"/>
  <g id="svg_16"/>
  <g id="svg_17"/>
  <g id="svg_18"/>
  <g id="svg_19"/>
  <g id="svg_20"/>
  <g id="svg_21"/>
  <g id="svg_22"/>
  <g id="svg_23"/>
  <g id="svg_24"/>
  <g id="svg_25"/>
  <g id="svg_26"/>
  <g id="svg_27"/>
  <g id="svg_28"/>
  <g id="svg_42" transform="matrix(0.7091414789045779,0,0,0.6603612340109546,-1122.0680029010339,-1018.6633174676413) " stroke="null"/>
  <g id="svg_43" transform="matrix(0.7091414789045779,0,0,0.6603612340109546,-1122.0680029010339,-1018.6633174676413) " stroke="null"/>
  <g id="svg_44" transform="matrix(0.7091414789045779,0,0,0.6603612340109546,-1122.0680029010339,-1018.6633174676413) " stroke="null"/>
  <g id="svg_45" transform="matrix(0.7091414789045779,0,0,0.6603612340109546,-1122.0680029010339,-1018.6633174676413) " stroke="null"/>
  <g id="svg_46" transform="matrix(0.7091414789045779,0,0,0.6603612340109546,-1122.0680029010339,-1018.6633174676413) " stroke="null"/>
  <g id="svg_47" transform="matrix(0.7091414789045779,0,0,0.6603612340109546,-1122.0680029010339,-1018.6633174676413) " stroke="null"/>
  <g id="svg_48" transform="matrix(0.7091414789045779,0,0,0.6603612340109546,-1122.0680029010339,-1018.6633174676413) " stroke="null"/>
  <g id="svg_49" transform="matrix(0.7091414789045779,0,0,0.6603612340109546,-1122.0680029010339,-1018.6633174676413) " stroke="null"/>
  <g id="svg_50" transform="matrix(0.7091414789045779,0,0,0.6603612340109546,-1122.0680029010339,-1018.6633174676413) " stroke="null"/>
  <g id="svg_51" transform="matrix(0.7091414789045779,0,0,0.6603612340109546,-1122.0680029010339,-1018.6633174676413) " stroke="null"/>
  <g id="svg_52" transform="matrix(0.7091414789045779,0,0,0.6603612340109546,-1122.0680029010339,-1018.6633174676413) " stroke="null"/>
  <g id="svg_53" transform="matrix(0.7091414789045779,0,0,0.6603612340109546,-1122.0680029010339,-1018.6633174676413) " stroke="null"/>
  <g id="svg_54" transform="matrix(0.7091414789045779,0,0,0.6603612340109546,-1122.0680029010339,-1018.6633174676413) " stroke="null"/>
  <g id="svg_55" transform="matrix(0.7091414789045779,0,0,0.6603612340109546,-1122.0680029010339,-1018.6633174676413) " stroke="null"/>
  <g id="svg_56" transform="matrix(0.7091414789045779,0,0,0.6603612340109546,-1122.0680029010339,-1018.6633174676413) " stroke="null"/>
  <g transform="matrix(0.9846517007637144,0,0,1.004106893127588,-1938.0004840204901,-1916.4754875644446) " stroke="null" id="svg_100"/>
  <g stroke="null" transform="matrix(0.3738742516379965,0,0,0.3871448071239447,-2659.9001239640543,-2662.953840124897) " id="svg_99"/>
  <g stroke="null" transform="matrix(0.3738742516379965,0,0,0.3871448071239447,-2659.9001239640543,-2662.953840124897) " id="svg_98"/>
  <g stroke="null" transform="matrix(0.3738742516379965,0,0,0.3871448071239447,-2659.9001239640543,-2662.953840124897) " id="svg_97"/>
  <g stroke="null" transform="matrix(0.3738742516379965,0,0,0.3871448071239447,-2659.9001239640543,-2662.953840124897) " id="svg_96"/>
  <g stroke="null" transform="matrix(0.3738742516379965,0,0,0.3871448071239447,-2659.9001239640543,-2662.953840124897) " id="svg_95"/>
  <g stroke="null" transform="matrix(0.3738742516379965,0,0,0.3871448071239447,-2659.9001239640543,-2662.953840124897) " id="svg_94"/>
  <g stroke="null" transform="matrix(0.3738742516379965,0,0,0.3871448071239447,-2659.9001239640543,-2662.953840124897) " id="svg_93"/>
  <g stroke="null" transform="matrix(0.3738742516379965,0,0,0.3871448071239447,-2659.9001239640543,-2662.953840124897) " id="svg_92"/>
  <g stroke="null" transform="matrix(0.3738742516379965,0,0,0.3871448071239447,-2659.9001239640543,-2662.953840124897) " id="svg_91"/>
  <g stroke="null" transform="matrix(0.3738742516379965,0,0,0.3871448071239447,-2659.9001239640543,-2662.953840124897) " id="svg_90"/>
  <g stroke="null" transform="matrix(0.3738742516379965,0,0,0.3871448071239447,-2659.9001239640543,-2662.953840124897) " id="svg_89"/>
  <g stroke="null" transform="matrix(0.3738742516379965,0,0,0.3871448071239447,-2659.9001239640543,-2662.953840124897) " id="svg_88"/>
  <g stroke="null" transform="matrix(0.3738742516379965,0,0,0.3871448071239447,-2659.9001239640543,-2662.953840124897) " id="svg_87"/>
  <g stroke="null" transform="matrix(0.3738742516379965,0,0,0.3871448071239447,-2659.9001239640543,-2662.953840124897) " id="svg_86"/>
  <g stroke="null" transform="matrix(0.3738742516379965,0,0,0.3871448071239447,-2659.9001239640543,-2662.953840124897) " id="svg_85"/>
  <path stroke="null" clip-rule="evenodd" fill="#b2b2b2" fill-rule="evenodd" id="svg_84" d="m238.94626,412.61991c-30.13132,-17.5548 -55.29114,-40.50567 -75.15255,-68.87571c-40.7311,-57.05436 -53.96679,-127.62098 -52.3175,-196.84612l0,-0.99708l0.32887,-1.02519c1.33421,-14.17799 11.5864,-25.66296 25.49362,-27.34384c16.5579,-2.36668 32.78102,-6.4062 48.67626,-12.4951c18.54,-6.75664 36.4134,-15.86389 53.62905,-25.66297c9.27936,-5.40009 19.86535,-5.40009 29.14471,0c17.21466,9.79808 35.42284,18.90633 53.96777,25.66297c15.55651,6.0889 2.04344,1.89638 48.66149,12.4951c46.61805,10.59872 32.7897,81.18408 33.11365,96.03281c-34.86022,7.32035 -95.8875,12.72562 -108.98969,97.09182c-32.57124,22.65575 -44.86349,92.02655 -26.09449,101.96331c-9.59937,5.73947 -21.51563,5.73947 -30.46119,0zm136.07296,-265.3724c0,-4.05358 -2.97463,-7.43139 -6.6208,-7.76677c-18.21015,-2.70205 -35.75565,-7.09602 -53.29919,-13.50724c-17.21959,-6.41524 -36.41341,-15.52851 -56.94537,-27.34384c-2.64969,-1.35153 -5.3053,-1.35153 -7.955,0c-20.52309,11.81533 -39.39197,20.9286 -56.94043,27.34384c-17.21566,6.41122 -35.09299,10.80419 -52.98017,13.50724c-3.63632,0.33538 -6.61982,3.71319 -6.94869,7.76677c-1.65422,74.60514 14.23609,135.71911 48.00374,183.32582c18.21605,25.99834 41.39377,46.93095 68.86555,62.80488c2.32083,1.6869 5.63418,1.6869 7.955,0c-8.70984,-63.83238 -1.73246,-63.80859 35.53123,-80.90013c13.76468,-66.65535 82.99228,-90.62543 81.33413,-165.23057z"/>
  <path stroke="null" clip-rule="evenodd" fill="#00007f" fill-rule="evenodd" id="svg_83" d="m369.14826,226.82815c0,-4.05358 10.89633,-85.01203 -0.74984,-87.34741c-18.21015,-2.70205 -35.75565,-7.09602 -53.29919,-13.50724c-17.21959,-6.41524 -36.41341,-15.52851 -56.94537,-27.34384c-2.64969,-1.35153 -5.3053,-1.35153 -7.955,0c-20.52309,11.81533 -39.39197,20.9286 -56.94043,27.34384c-17.21566,6.41122 -35.09299,10.80419 -52.98017,13.50724c-3.63632,0.33538 -6.61982,3.71319 -6.94869,7.76677c-1.65422,74.60514 14.23609,135.71911 48.00374,183.32582c18.21605,25.99834 41.39377,46.93095 68.86555,62.80488c17.80468,1.6869 11.44063,-17.66792 14.40661,-21.2903c3.48065,-48.21331 20.55175,-37.27097 36.76781,-47.93394c6.76469,-69.60772 37.43313,-97.72068 67.77498,-97.32582z"/>
  <polygon stroke="null" id="svg_82" fill="#ffffff" points="231.292264713446,271.97254428772 294.7104691027221,217.2043476777801 308.0256236568239,179.61260557974697 271.88005975867145,193.56370989807988 218.98916671701363,259.23293808116364 "/>
  <polygon stroke="null" id="svg_81" fill="#efefef" points="224.98073385320367,265.4365340375814 231.292264713446,271.97254428772 294.7104691027221,217.2043476777801 308.0256236568239,179.61260557974697 308.0256236568239,179.61260557974697 "/>
  <rect stroke="null" id="svg_80" fill="#FF9451" height="100.729" width="55.429" transform="matrix(-0.26436648333322743,-0.2737500931173414,0.26436648333322743,-0.2737500931173414,-2651.410486557261,-2377.8650498965103) " y="539.503521" x="-10296.426222"/>
  <rect stroke="null" id="svg_79" fill="#F7674F" height="100.729" width="28.323" transform="matrix(0.26436648333322743,0.2737500931173414,-0.26436648333322743,0.2737500931173414,-2542.274050159218,-2668.1273723259374) " y="96.350479" x="10591.853222"/>
  <rect stroke="null" id="svg_78" fill="#FFDC00" height="30.994" width="91.189" transform="matrix(-0.26436648333322743,-0.2737500931173414,0.26436648333322743,-0.2737500931173414,-2619.2758076918494,-2391.6548769249002) " y="538.760521" x="-10278.708222"/>
  <rect stroke="null" id="svg_77" fill="#FFC000" height="30.994" width="46.2" transform="matrix(0.26436648333322743,0.2737500931173414,-0.26436648333322743,0.2737500931173414,-2545.4254736137,-2682.93194460828) " y="101.922479" x="10624.860222"/>
  <polygon stroke="null" id="svg_74" fill="#e0e0e0" points="287.70492226100896,259.1510602241558 234.81354843238796,193.48207718435629 198.51076719724824,179.69423829347056 211.98313908833734,217.1227149640565 275.4015838710952,271.8909115739964 "/>
  <polygon stroke="null" id="svg_73" fill="#c0c0c0" points="198.51076719724824,179.69423829347056 198.51076719724824,179.69423829347056 211.98313908833734,217.1227149640565 275.4015838710952,271.8909115739964 281.54099299848895,265.53312049165675 "/>
  <rect stroke="null" id="svg_72" fill="#FF9451" height="100.729" width="55.429" transform="matrix(-0.26436648333322743,0.2737500931173414,-0.26436648333322743,-0.2737500931173414,-2342.806528796573,-2517.675467097275) " y="-10119.659222" x="92.255479"/>
  <rect stroke="null" id="svg_71" fill="#F7674F" height="100.729" width="27.671" transform="matrix(-0.26436648333322743,0.2737500931173414,-0.26436648333322743,-0.2737500931173414,-2346.4695243895703,-2508.495373287311) " y="-10109.832222" x="96.324479"/>
  <rect stroke="null" id="svg_70" fill="#FFDC00" height="30.994" width="91.189" transform="matrix(-0.26436648333322743,0.2737500931173414,-0.26436648333322743,-0.2737500931173414,-2374.9497319949214,-2531.454647643469) " y="-10120.393222" x="38.760479"/>
  <rect stroke="null" id="svg_69" fill="#FFC000" height="30.994" width="45.552" transform="matrix(-0.26436648333322743,0.2737500931173414,-0.26436648333322743,-0.2737500931173414,-2380.9861561121684,-2516.3759768376826) " y="-10104.263222" x="45.439479"/>
 </g>
</svg>