<svg width="512" height="512" xmlns="http://www.w3.org/2000/svg">
 <g>
  <title>background</title>
  <rect x="-1" y="-1" width="514" height="514" id="canvas_background" fill="none"/>
 </g>

 <g>
  <title>Layer 1</title>
  <path fill="#000000" d="m509.13312,256.08122c0,139.6148 -114.23753,253.05182 -254.83757,253.05182c-140.60005,-1.74518 -254.83758,-115.18221 -254.83758,-253.05182c0,-139.6148 114.23753,-253.05183 254.83758,-253.05183s254.83757,113.43703 254.83757,253.05183z" id="svg_71" stroke="null"/>
  <path d="m370.13484,317.30392c-0.214,-10.67607 1.9253,-22.04585 7.58484,-33.67092c12.93143,-26.60142 19.55061,-51.80099 20.6206,-74.79897c2.29511,-45.13919 -16.45301,-81.71418 -49.41051,-103.45645c-23.87469,-15.83252 -55.23123,-23.84663 -91.44817,-21.64255c-40.01004,2.35399 -85.94577,17.18295 -134.23347,47.69577l62.06975,42.33358c13.5674,-6.61225 29.00325,-10.36998 45.40343,-10.36998c5.18006,0 10.20296,0.35 15.16902,1.05186c13.03575,1.90302 25.26834,6.21396 36.10794,12.37587c20.03076,11.42184 35.41981,29.35809 42.73248,50.69956c3.15645,9.01956 4.80957,18.58732 4.80957,28.5565c0,15.13253 -3.84458,29.3606 -10.68378,41.98359c0,0 0,2.60739 0.85531,7.16735c2.98927,16.28287 16.82282,57.31245 80.60388,88.8257l2.88428,-6.8644c0.00134,-0.00063 -32.52751,-30.10951 -33.06517,-69.88651z" fill="#00007f" id="svg_1" stroke="null"/>
  <path d="m230.72131,178.42407c45.72174,0 82.79467,34.7692 82.79467,77.65349c0,18.89027 -7.20902,36.225 -19.17545,49.69851c-11.32511,12.92595 -18.2158,37.97686 19.17545,58.01683c0,0 -64.09871,5.51397 -64.09871,-44.58659l-0.05217,0c4.64775,-8.0185 8.3305,-16.5369 10.73462,-25.55395c-44.17161,-22.59343 -82.68968,-62.92427 -103.51892,-88.52463c25.90497,-21.64443 49.72816,-26.70366 74.14051,-26.70366z" fill="#00007f" id="svg_6" stroke="null"/>
  <path d="m260.09972,293.65299c-2.40479,9.01704 -6.08687,17.53545 -10.73462,25.55394c-28.3666,49.79699 -90.75535,79.65624 -90.75535,79.65624l-16.02501,0l0,-100.2005c0,-5.50896 4.75207,-10.01999 10.68312,-10.01999l21.36624,0l0,-15.0303l-37.39125,-5.00968l-16.02435,50.09994l-10.68312,5.01031l29.75425,-141.53178c0.53231,1.95508 6.40585,10.77141 16.2905,22.94656c20.82991,25.60099 59.34798,65.9312 103.51959,88.52526z" fill="#00007f" id="svg_9" stroke="null"/>
  <g opacity="0.7" id="svg_10" stroke="null">
   <path d="m124.29136,309.09412l24.07932,-114.52391c-4.85706,-6.53636 -7.7206,-11.06245 -8.08039,-12.38841l-29.75491,141.53178l10.68312,-5.01031l3.07286,-9.60915z" fill="#FFFFFF" id="svg_11" stroke="null"/>
   <path d="m163.95165,288.64331l-10.68312,0c-5.93106,0 -10.68312,4.5104 -10.68312,10.01999l0,100.2005l10.68312,0l0,-100.20113c0,-5.50896 4.75206,-10.01936 10.68312,-10.01936z" fill="#FFFFFF" id="svg_12" stroke="null"/>
  </g>
  <g id="svg_17" stroke="null">
   <path d="m313.51598,366.29805c-0.45408,0 -0.90748,-0.10223 -1.32478,-0.32741c-16.7867,-8.9976 -26.51954,-19.80037 -28.9357,-32.10034c-2.80068,-14.29644 5.37266,-25.52008 9.01929,-29.68363c0.94962,-1.06629 2.62414,-1.22309 3.761,-0.34246c1.14221,0.87561 1.30404,2.45623 0.37048,3.52252c-3.17718,3.62036 -10.29726,13.36688 -7.89782,25.59848c2.1179,10.78332 10.97469,20.42196 26.3323,28.65622c1.28331,0.68556 1.72669,2.21663 0.99642,3.41464c-0.49486,0.81163 -1.39766,1.26198 -2.32119,1.26198z" fill="#ffff00" id="svg_18" stroke="#ffff00"/>
   <path d="m158.60975,401.36832l-16.02501,0c-1.47658,0 -2.67095,-1.12023 -2.67095,-2.50515l0,-100.2005c0,-1.3843 1.19437,-2.50453 2.67095,-2.50453s2.67095,1.12023 2.67095,2.50453l0,97.69597l12.69669,0c6.22798,-3.10666 62.8368,-32.30105 89.05408,-78.33591c4.72063,-8.13642 8.25225,-16.5369 10.50055,-24.97627c0.35443,-1.34102 1.82031,-2.16269 3.23938,-1.82022c1.43511,0.33243 2.29979,1.69289 1.94536,3.03328c-2.36266,8.85083 -6.05611,17.64835 -10.98004,26.14166c-28.42411,49.89985 -91.25557,80.39574 -91.88685,80.69367c-0.37517,0.18064 -0.79246,0.27347 -1.2151,0.27347l-0.00001,0z" fill="#ffff00" id="svg_19" stroke="#ffff00"/>
   <path d="m110.53539,326.2181c-0.57378,0 -1.14221,-0.1706 -1.61702,-0.50931c-0.81385,-0.58207 -1.19972,-1.5411 -1.00177,-2.48006l29.75424,-141.53178c0.28154,-1.35983 1.70596,-2.23356 3.13505,-1.97389c1.44448,0.26908 2.38874,1.58501 2.10252,2.94296l-28.70097,136.52649l4.78349,-2.24548l15.69599,-49.06313c0.37584,-1.18484 1.6645,-1.92811 2.93176,-1.76189l37.39125,5.00968c1.32009,0.17625 2.29578,1.23313 2.29578,2.48069l0,15.0303c0,1.38429 -1.19504,2.50452 -2.67095,2.50452s-2.67094,-1.12023 -2.67094,-2.50452l0,-12.85758l-32.82175,-4.39938l-15.36764,48.03572c-0.20865,0.66612 -0.70419,1.21432 -1.36156,1.52229l-10.68312,5.00968c-0.37516,0.17688 -0.7871,0.26469 -1.19437,0.26469l0.00001,0z" fill="#ffff00" id="svg_20" stroke="#ffff00"/>
   <path d="m140.29498,184.63803c-0.12573,0 -0.25078,-0.00753 -0.37049,-0.02446c-1.46587,-0.19068 -2.48303,-1.45517 -2.27973,-2.82567c0.20397,-1.36987 1.68522,-2.47505 3.03608,-2.31197c1.46588,0.19131 2.50911,1.27955 2.30581,2.64942l-0.05216,0.3525c-0.18256,1.25258 -1.33012,2.16018 -2.63951,2.16018z" fill="#ffff00" id="svg_21" stroke="#ffff00"/>
   <path d="m400.31707,396.55873c-0.42799,0 -0.85532,-0.09722 -1.24653,-0.28852c-64.87111,-32.05142 -78.95076,-74.04944 -81.99152,-90.61582c-0.88139,-4.71174 -0.89143,-7.47657 -0.89143,-7.59324c0,-1.3799 1.19437,-2.50013 2.66493,-2.50013l0.00535,0c1.47123,0 2.6656,1.11521 2.67095,2.49574c0,0.02447 0.02073,2.49512 0.81385,6.73707c2.8689,15.62178 16.06648,54.8995 76.58677,85.72845l1.15758,-2.74476c-6.129,-6.10169 -32.13295,-34.08677 -32.62313,-70.44412c-0.23941,-11.89415 2.39476,-23.58696 7.82492,-34.73784c12.43589,-25.58342 19.29582,-50.43613 20.38052,-73.8713c2.20684,-43.33401 -14.93965,-79.30436 -48.27767,-101.2969c-24.07931,-15.97176 -55.07473,-23.30784 -89.73819,-21.19219c-41.91327,2.46626 -87.86974,18.81249 -132.91338,47.27239c-1.22045,0.76333 -2.8796,0.47732 -3.70883,-0.67741c-0.82389,-1.1472 -0.50089,-2.70336 0.72491,-3.47611c45.82607,-28.9598 92.70607,-45.59957 135.55891,-48.11915c35.86251,-2.17711 68.06367,5.45753 93.15947,22.09729c34.87679,23.00991 52.82644,60.52135 50.53132,105.62165c-1.11612,24.06929 -8.13187,49.55048 -20.85532,75.721c-5.09646,10.46532 -7.56879,21.42427 -7.3441,32.57954c0.5156,38.32371 31.95573,67.86056 32.27405,68.1541c0.7617,0.70438 1.00111,1.76565 0.60455,2.70085l-2.88428,6.86377c-0.27619,0.6611 -0.83994,1.18484 -1.55415,1.42883c-0.30428,0.10788 -0.61658,0.15681 -0.92955,0.15681z" fill="#ffff00" id="svg_22" stroke="#ffff00"/>
   <path d="m185.31788,176.26891c-0.54769,0 -1.09606,-0.15681 -1.5702,-0.47983l-62.07042,-42.33296c-1.19437,-0.81226 -1.45518,-2.38033 -0.58916,-3.49805c0.86602,-1.12525 2.54054,-1.36486 3.72956,-0.55259l62.06976,42.33358c1.19436,0.81226 1.45517,2.38034 0.58916,3.49806c-0.52028,0.6749 -1.33414,1.03179 -2.1587,1.03179z" fill="#ffff00" id="svg_23" stroke="#ffff00"/>
   <path d="m174.63477,291.14783l-21.36624,0c-1.47658,0 -2.67095,-1.12023 -2.67095,-2.50452c0,-1.38493 1.19437,-2.50516 2.67095,-2.50516l21.36624,0c1.47657,0 2.67094,1.12023 2.67094,2.50516c0,1.38429 -1.19503,2.50452 -2.67094,2.50452z" fill="#ffff00" id="svg_24" stroke="#ffff00"/>
   <path d="m142.58474,301.16782c-1.47658,0 -2.67095,-1.12023 -2.67095,-2.50515c0,-6.90329 5.98857,-12.52514 13.35407,-12.52514c1.47658,0 2.67095,1.12023 2.67095,2.50515c0,1.38429 -1.19504,2.50453 -2.67095,2.50453c-4.41836,0 -8.01217,3.37135 -8.01217,7.51483c0,1.38555 -1.19437,2.50578 -2.67095,2.50578z" fill="#ffff00" id="svg_25" stroke="#ffff00"/>
   <path d="m260.09972,296.15814c-0.43201,0 -0.87137,-0.09785 -1.2773,-0.30358c-49.13365,-25.13308 -89.35166,-70.75711 -104.36487,-89.20705c-8.94573,-11.02042 -15.99358,-21.04794 -16.75528,-23.84663c-0.04681,-0.16685 -0.07289,-0.33745 -0.08359,-0.5112c-0.06219,-0.65545 0.06821,-1.38241 0.41729,-1.86663c0.49554,-0.69246 1.41372,-1.1472 2.30582,-1.1472c1.47591,0 2.67095,1.12023 2.67095,2.50515c0,0.03889 0,0.0759 -0.00535,0.11478c0.95429,2.08178 6.04072,9.81928 15.69599,21.71594c14.80456,18.1909 54.44345,63.17077 102.6743,87.84471c1.29401,0.66047 1.7735,2.18213 1.06998,3.39519c-0.4855,0.83673 -1.40368,1.30652 -2.34794,1.30652z" fill="#ffff00" id="svg_26" stroke="#ffff00"/>
   <path d="m294.34053,308.28186c-0.60521,0 -1.21042,-0.19131 -1.7113,-0.57768c-1.13151,-0.88565 -1.28332,-2.46627 -0.33905,-3.52754c11.96643,-13.47853 18.55485,-30.55924 18.55485,-48.09908c0,-41.43602 -35.94142,-75.14896 -80.12372,-75.14896c-20.35444,0 -44.87178,3.09726 -72.36233,26.07015c-1.11145,0.91513 -2.796,0.82669 -3.7717,-0.2051c-0.98104,-1.03242 -0.88675,-2.61492 0.214,-3.53757c28.83138,-24.08874 54.5578,-27.33779 75.91936,-27.33779c47.12476,0 85.46562,35.96093 85.46562,80.15864c0,18.709 -7.0318,36.92938 -19.79671,51.3036c-0.52563,0.59335 -1.28732,0.90132 -2.04902,0.90132l0,0.00001z" fill="#ffff00" id="svg_27" stroke="#ffff00"/>
   <path d="m318.8572,300.56568c-0.40659,0 -0.82388,-0.08781 -1.21042,-0.26908c-1.31474,-0.62598 -1.84104,-2.13823 -1.16828,-3.37073c6.89604,-12.73087 10.39087,-26.47409 10.39087,-40.84831c0,-9.56022 -1.57488,-18.90845 -4.67382,-27.77622c-7.04183,-20.54677 -21.80961,-38.06466 -41.58492,-49.33973c-10.85565,-6.17194 -22.67563,-10.22321 -35.13291,-12.04092c-4.86174,-0.68745 -9.69205,-1.02239 -14.75708,-1.02239c-15.57629,0 -30.4377,3.39269 -44.17228,10.08836c-1.29869,0.63099 -2.9157,0.16182 -3.59982,-1.0688c-0.68278,-1.22811 -0.17187,-2.73974 1.13752,-3.37826c19.00358,-9.26166 41.44449,-12.5082 62.20016,-9.57214c13.1608,1.92246 25.63815,6.1989 37.09367,12.7108c20.87605,11.90356 36.46237,30.39741 43.89073,52.07696c3.27549,9.35701 4.93998,19.22834 4.93998,29.32234c0,15.17143 -3.69278,29.67798 -10.97536,43.11825c-0.46812,0.87122 -1.40703,1.36987 -2.37804,1.36987z" fill="#ffff00" id="svg_28" stroke="#ffff00"/>
   <path d="m307.79892,366.49438c-10.44839,0 -32.24797,-1.64397 -46.88067,-14.16911c-9.40449,-8.04861 -14.1726,-19.19385 -14.1726,-33.11834c0,-1.38492 1.19437,-2.50452 2.67095,-2.50452c1.47591,0 2.67094,1.1196 2.67094,2.50452c0,12.4618 4.18364,22.35885 12.43054,29.41894c17.70957,15.1526 48.46023,12.70641 48.75247,12.67191c1.43445,-0.13736 2.76992,0.88565 2.90568,2.26994c0.13508,1.37489 -0.94962,2.5936 -2.41549,2.72093c-0.3337,0.02885 -2.54055,0.20573 -5.96182,0.20573z" fill="#ffff00" id="svg_29" stroke="#ffff00"/>
   <path d="m230.72131,155.87894c-1.47658,0 -2.67095,-1.12023 -2.67095,-2.50515l0,-56.36283c0,-1.38492 1.19437,-2.50515 2.67095,-2.50515s2.67094,1.12086 2.67094,2.50515l0,56.36283c0,1.38492 -1.19437,2.50515 -2.67094,2.50515z" fill="#ffff00" id="svg_30" stroke="#ffff00"/>
   <path d="m213.56947,157.13152c-1.28866,0 -2.42552,-0.88063 -2.63417,-2.11377l-8.60133,-50.95108c-0.22938,-1.36485 0.76638,-2.64942 2.22222,-2.86456c1.42375,-0.21765 2.82208,0.71191 3.05681,2.08177l8.602,50.95172c0.22938,1.36485 -0.76637,2.64942 -2.22222,2.86456c-0.1411,0.02195 -0.28221,0.03136 -0.42331,0.03136z" fill="#ffff00" id="svg_31" stroke="#ffff00"/>
   <path d="m196.85632,160.88925c-1.12683,0 -2.17541,-0.67302 -2.54054,-1.73178l-15.86251,-45.89311c-0.45407,-1.31593 0.31297,-2.73033 1.71598,-3.15559c1.43445,-0.43028 2.91103,0.29605 3.36443,1.60947l15.86318,45.89248c0.45408,1.31593 -0.31297,2.73033 -1.71598,3.15559c-0.27619,0.08342 -0.55305,0.12294 -0.82456,0.12294z" fill="#ffff00" id="svg_32" stroke="#ffff00"/>
   <path d="m175.75624,157.33223c-0.97034,0 -1.90925,-0.49865 -2.37871,-1.36736l-17.30765,-31.81432c-0.67275,-1.23062 -0.15114,-2.73974 1.16294,-3.36885c1.31474,-0.62158 2.93175,-0.14175 3.59447,1.09389l17.30833,31.81432c0.67275,1.23063 0.15113,2.73974 -1.16361,3.36822c-0.39188,0.18629 -0.80382,0.2741 -1.21577,0.2741z" fill="#ffff00" id="svg_33" stroke="#ffff00"/>
   <path d="m365.22093,350.21652c-0.54769,0 -1.09606,-0.15116 -1.5702,-0.47418l-23.92818,-16.28287c-1.1937,-0.81227 -1.45517,-2.38285 -0.58916,-3.49806c0.86602,-1.12588 2.54055,-1.3705 3.72957,-0.55824l23.92751,16.28287c1.19437,0.81227 1.45517,2.37783 0.58916,3.49806c-0.52028,0.6749 -1.33414,1.03242 -2.1587,1.03242z" fill="#ffff00" id="svg_34" stroke="#ffff00"/>
   <path d="m359.45172,320.05871c-0.40727,0 -0.81921,-0.08844 -1.21109,-0.2741l-29.26941,-13.92449c-1.31474,-0.6266 -1.84171,-2.1332 -1.17363,-3.36571c0.6781,-1.23313 2.27438,-1.72739 3.5938,-1.10141l29.26941,13.92449c1.31541,0.62597 1.84171,2.1332 1.17431,3.36571c-0.47414,0.87122 -1.41305,1.37551 -2.38339,1.37551z" fill="#ffff00" id="svg_35" stroke="#ffff00"/>
   <path d="m361.90867,298.56545c-0.27686,0 -0.55305,-0.03889 -0.82924,-0.12231l-27.02645,-8.26877c-1.40302,-0.4309 -2.16471,-1.84405 -1.71131,-3.15559c0.45943,-1.32094 1.96209,-2.03034 3.36978,-1.60947l27.02646,8.26877c1.40301,0.4309 2.16404,1.84405 1.7113,3.15559c-0.37115,1.06127 -1.41372,1.73178 -2.54054,1.73178z" fill="#ffff00" id="svg_36" stroke="#ffff00"/>
   <path d="m369.34238,279.17591c-0.1411,0 -0.28221,-0.01004 -0.42264,-0.0345l-30.44773,-4.50664c-1.45585,-0.21514 -2.45227,-1.4972 -2.22222,-2.86644c0.22938,-1.3705 1.62236,-2.31887 3.05681,-2.07927l30.44772,4.50665c1.45585,0.21514 2.4516,1.49719 2.22222,2.86643c-0.20931,1.23314 -1.34617,2.11377 -2.63416,2.11377z" fill="#ffff00" id="svg_37" stroke="#ffff00"/>
   <path d="m377.82936,258.58272l-37.60525,0c-1.47591,0 -2.67028,-1.12023 -2.67028,-2.50453c0,-1.38492 1.19437,-2.50515 2.67028,-2.50515l37.60525,0c1.47591,0 2.67027,1.12023 2.67027,2.50515c0,1.3843 -1.19436,2.50453 -2.67027,2.50453z" fill="#ffff00" id="svg_38" stroke="#ffff00"/>
   <path d="m338.88329,242.50307c-1.288,0 -2.42552,-0.87875 -2.6335,-2.11126c-0.23005,-1.36736 0.76169,-2.64941 2.22222,-2.86706l45.35126,-6.76404c1.42375,-0.23709 2.82208,0.7119 3.05614,2.07926c0.23005,1.36736 -0.76169,2.64942 -2.22155,2.86707l-45.35126,6.76467c-0.14111,0.02132 -0.28221,0.03136 -0.42331,0.03136z" fill="#ffff00" id="svg_39" stroke="#ffff00"/>
   <path d="m334.88222,226.82234c-1.12683,0 -2.17541,-0.67302 -2.54055,-1.73241c-0.45407,-1.31593 0.31364,-2.72782 1.71599,-3.15559l52.66995,-16.03324c1.40368,-0.42839 2.91169,0.29606 3.36443,1.60947c0.45407,1.31656 -0.31297,2.72782 -1.71599,3.15559l-52.66995,16.03324c-0.27084,0.08342 -0.55238,0.12294 -0.82388,0.12294z" fill="#ffff00" id="svg_40" stroke="#ffff00"/>
   <path d="m328.25768,211.94132c-0.97034,0 -1.90925,-0.49927 -2.37871,-1.36799c-0.67342,-1.23313 -0.14645,-2.74224 1.16829,-3.36822l57.90217,-27.65579c1.29869,-0.61594 2.92105,-0.13924 3.58846,1.09326c0.67275,1.23313 0.14645,2.74225 -1.16829,3.36885l-57.90217,27.65517c-0.38586,0.18628 -0.79781,0.27472 -1.20975,0.27472z" fill="#ffff00" id="svg_41" stroke="#ffff00"/>
   <path d="m319.2852,198.21504c-0.82389,0 -1.63775,-0.3569 -2.15936,-1.03242c-0.86602,-1.12023 -0.60454,-2.6858 0.58983,-3.50057l59.13331,-40.28066c1.18434,-0.80474 2.8582,-0.56765 3.72957,0.55509c0.86601,1.12023 0.60521,2.6858 -0.58983,3.50057l-59.13265,40.28129c-0.47481,0.3224 -1.02318,0.4767 -1.57087,0.4767z" fill="#ffff00" id="svg_42" stroke="#ffff00"/>
   <path d="m308.12259,185.98845c-0.68278,0 -1.3669,-0.24524 -1.88852,-0.73385c-1.04323,-0.97848 -1.04323,-2.56349 0,-3.54197l55.28338,-51.85179c1.04391,-0.97847 2.73381,-0.97847 3.77705,0c1.04323,0.97911 1.04323,2.56412 0,3.54197l-55.28406,51.85179c-0.52161,0.48861 -1.20506,0.73385 -1.88785,0.73385z" fill="#ffff00" id="svg_43" stroke="#ffff00"/>
   <path d="m295.03402,175.51812c-0.5477,0 -1.0954,-0.15618 -1.5702,-0.47921c-1.19437,-0.81226 -1.45585,-2.38033 -0.58983,-3.49805l46.62989,-60.16948c0.87137,-1.12274 2.54054,-1.35983 3.72956,-0.55259c1.19437,0.81226 1.45585,2.38033 0.58983,3.49806l-46.62989,60.16947c-0.52095,0.67428 -1.33481,1.0318 -2.15936,1.0318z" fill="#ffff00" id="svg_44" stroke="#ffff00"/>
   <path d="m280.39731,167.10321c-0.41195,0 -0.82389,-0.08844 -1.2151,-0.2741c-1.3094,-0.62848 -1.83636,-2.13572 -1.16294,-3.36885l34.88147,-64.17872c0.66807,-1.23815 2.28508,-1.71485 3.59447,-1.09326c1.3094,0.62848 1.83636,2.13571 1.16294,3.36822l-34.88214,64.17872c-0.46945,0.86872 -1.40836,1.36799 -2.3787,1.36799z" fill="#ffff00" id="svg_45" stroke="#ffff00"/>
   <path d="m264.53413,160.88925c-0.27151,0 -0.55305,-0.03889 -0.82389,-0.12231c-1.40368,-0.4284 -2.17006,-1.84217 -1.71598,-3.1581l22.22155,-64.12729c0.45408,-1.30903 1.9661,-2.03536 3.36443,-1.60696c1.40369,0.42839 2.17006,1.84217 1.71599,3.1581l-22.22156,64.12729c-0.3658,1.05625 -1.41371,1.72927 -2.54054,1.72927z" fill="#ffff00" id="svg_46" stroke="#ffff00"/>
   <path d="m247.87314,157.13152c-0.14043,0 -0.28153,-0.01004 -0.42264,-0.03199c-1.45518,-0.21514 -2.45227,-1.4972 -2.22222,-2.86456l10.30729,-61.12349c0.23004,-1.36799 1.63239,-2.30695 3.05681,-2.08177c1.45517,0.21514 2.4516,1.49719 2.22222,2.86455l-10.30796,61.12349c-0.20798,1.23314 -1.34483,2.11377 -2.6335,2.11377z" fill="#ffff00" id="svg_47" stroke="#ffff00"/>
  </g>
  <g stroke="null" transform="matrix(0.9723189879935015,0,0,0.9636412188660121,-1987.2226013127984,-1965.2293056145154) " id="svg_142">
   <title stroke="null" transform="translate(2047.22216796875,0) translate(0,2048.5) ">background</title>
   <rect stroke="null" x="2046.222168" y="2047.5" width="514" height="514" id="svg_140" fill="none"/>
  </g>
  <g stroke="null" transform="matrix(9.62345667614779,0,0,10.356623679889518,-1991.3407215829286,-1973.3558418016796) " id="svg_92">
   <ellipse stroke="#ffff00" id="svg_94" ry="4.7" rx="5.4" cy="201.968282" cx="214.19582" fill="#FFCF2D"/>
   <path stroke="#ffff00" id="svg_93" d="m211.79582,206.168279c-1,-2 -0.5,-3.1 0.3,-4.2c0.9,-1.2 1.1,-2.4 1.1,-2.4s0.6,0.8 0.4,2.1c1.2,-1.2 1.4,-3.2 1.2,-4c2.6,1.7 3.7,5.6 2.2,8.5c8,-4.4 2,-11 1,-11.7c0.4,0.7 0.4,2 -0.3,2.6c-1.2,-4.5 -4.2,-5.4 -4.2,-5.4c0.4,2.3 -1.3,4.7 -2.8,6.6c-0.1,-0.9 -0.1,-1.5 -0.6,-2.4c-0.1,1.6 -1.4,3 -1.8,4.6c-0.5,2.3 0.3,3.9 3.5,5.7z" fill="#C82D52"/>
  </g>
 </g>
</svg>