<svg width="512" height="512" xmlns="http://www.w3.org/2000/svg">
 <g>
  <title>background</title>
  <rect x="-1" y="-1" width="514" height="514" id="canvas_background" fill="none"/>
 </g>

 <g>
  <title>Layer 1</title>
  <path stroke="null" id="svg_15" d="m481.789713,341.251612l-19.147289,0l0,-27.968982c0,-40.205411 -33.072591,-73.418577 -73.107832,-73.418577c-40.035241,0 -73.107832,33.213166 -73.107832,73.418577l0,27.968982l-19.147289,0c-10.443976,0 -19.147289,8.740307 -19.147289,19.228675l0,124.112356c0,10.488368 8.703313,19.228675 19.147289,19.228675l182.76958,0c10.443976,0 19.147289,-8.740307 19.147289,-19.228675l0,-124.112356c1.740663,-10.488368 -6.962651,-19.228675 -17.406627,-19.228675zm-78.32982,90.899191l0,33.213166l-27.850603,0l0,-33.213166c-10.443976,-5.244184 -15.665964,-15.732552 -15.665964,-26.22092c0,-17.480614 13.925301,-31.465104 31.331928,-31.465104s31.331928,13.984491 31.331928,31.465104c-1.740663,12.23643 -8.703313,22.724798 -19.147289,26.22092zm22.628615,-90.899191l-73.107832,0l0,-26.22092c0,-19.228675 15.665964,-36.709289 36.553916,-36.709289c19.147289,0 36.553916,15.732552 36.553916,36.709289l0,26.22092z" fill="#000000"/>
  <path stroke="null" id="svg_14" d="m261.615214,364.062808c0,-22.724798 17.406627,-40.205411 38.294579,-41.953473c-1.740663,-3.496123 -1.740663,-6.992245 -1.740663,-10.488368c0,-50.693779 41.775904,-92.647252 92.255121,-92.647252s92.255121,41.953473 92.255121,92.647252c0,3.496123 -1.740663,6.992245 -1.740663,10.488368l15.665964,0c5.221988,-20.976736 8.703313,-43.701534 8.703313,-68.174393c0,-139.844909 -113.143073,-253.468897 -252.396086,-253.468897s-252.396086,115.37205 -252.396086,255.216958c0,138.096847 113.143073,251.720836 252.396086,253.468897l8.703313,0l0,-145.089093z" fill="#000000"/>
  <path d="m403.745664,216.041211c9.952748,-47.841876 -21.858394,-89.371808 -54.815899,-111.114083c-23.874681,-15.832521 -55.231222,-23.84663 -91.448165,-21.642546c-40.010035,2.353991 -85.945774,17.182946 -134.233471,47.695768l62.069756,42.333585c13.567394,-6.612251 29.003246,-10.369982 45.403422,-10.369982c5.180059,0 10.202964,0.349994 15.169026,1.051863c13.035745,1.903014 25.268334,6.21396 36.107938,12.375861c20.030764,11.421845 31.365764,21.250011 41.381128,35.834752c3.156452,9.019557 7.96272,17.686414 7.96272,24.952902c34.194543,-27.609878 85.055698,-9.724406 68.799953,-32.829794z" fill="#ffffff" id="svg_1" stroke="null"/>
  <path d="m230.721306,178.42407c45.721742,0 82.794672,34.7692 82.794672,77.653493c0,18.890264 -12.614403,45.233979 -24.580834,58.707491c-22.716311,20.629559 -25.10351,60.377656 -39.517878,4.421253l-0.052162,0c6.449538,-3.964458 15.537676,-16.987349 10.734612,-25.553948c-44.171603,-22.593426 -82.68968,-62.924268 -103.518919,-88.52463c25.904975,-21.644428 49.728162,-26.703659 74.14051,-26.703659l-0.000001,0z" fill="#ffffff" id="svg_6" stroke="null"/>
  <path d="m260.099716,293.652987c-2.404788,9.017048 -6.08687,17.535449 -10.734612,25.553948c-28.366606,49.796986 -90.755351,79.656236 -90.755351,79.656236l-16.025012,0l0,-100.200503c0,-5.508955 4.752065,-10.019988 10.683119,-10.019988l21.366237,0l0,-15.030295l-37.39125,-5.00968l-16.024344,50.099938l-10.683119,5.010307l29.754241,-141.531776c0.532317,1.955074 6.405859,10.771408 16.290502,22.946556c20.829908,25.60099 59.347985,65.931205 103.519588,88.525258l0.000001,-0.000001z" fill="#ffffff" id="svg_9" stroke="null"/>
  <g opacity="0.7" id="svg_10" stroke="null">
   <path d="m124.291363,309.094117l24.079315,-114.523911c-4.857057,-6.536356 -7.720601,-11.062443 -8.080383,-12.388405l-29.75491,141.531776l10.683119,-5.010307l3.07286,-9.609152l-0.000001,-0.000001z" fill="#FFFFFF" id="svg_11" stroke="null"/>
   <path d="m163.951647,288.643307l-10.683119,0c-5.931054,0 -10.683119,4.510406 -10.683119,10.019988l0,100.200503l10.683119,0l0,-100.20113c0,-5.508955 4.752065,-10.01936 10.683119,-10.01936l0,-0.000001z" fill="#FFFFFF" id="svg_12" stroke="null"/>
  </g>
  <path stroke="#4c4c4c" d="m283.2555,326.212667c-2.800682,-10.718402 5.372656,-19.13305 9.019294,-22.254568c0.949611,-0.799425 2.624135,-0.916987 3.760993,-0.256756c1.142208,0.656469 1.304043,1.841498 0.370482,2.640923c-3.177183,2.714281 -10.297256,10.021492 -7.897817,19.191831l-5.252952,0.67857z" fill="#4c4c4c" id="svg_18"/>
  <path d="m158.609753,401.368324l-16.025012,0c-1.476578,0 -2.670947,-1.120231 -2.670947,-2.505154l0,-100.200503c0,-1.384295 1.194369,-2.504526 2.670947,-2.504526s2.670947,1.120231 2.670947,2.504526l0,97.695977l12.696694,0c6.227974,-3.106667 62.8368,-32.301053 89.054077,-78.335918c4.720634,-8.136418 8.252249,-16.5369 10.500553,-24.97627c0.354432,-1.341016 1.82031,-2.162687 3.239376,-1.820219c1.435116,0.332432 2.299796,1.692892 1.945364,3.033281c-2.362658,8.850832 -6.056108,17.64835 -10.980039,26.141662c-28.424118,49.899852 -91.255568,80.395739 -91.886858,80.693673c-0.375163,0.180642 -0.792457,0.273472 -1.2151,0.273472l-0.000002,-0.000001z" fill="#666666" id="svg_19" stroke="#666666"/>
  <path d="m110.535385,326.218103c-0.573779,0 -1.142208,-0.170606 -1.617013,-0.50931c-0.813856,-0.582069 -1.199719,-1.541102 -1.001772,-2.480065l29.754241,-141.531776c0.281539,-1.359833 1.705955,-2.233563 3.135052,-1.973891c1.444478,0.269081 2.388739,1.585008 2.102518,2.94296l-28.700976,136.526486l4.783496,-2.245481l15.695992,-49.063128c0.375832,-1.184836 1.664493,-1.928103 2.931755,-1.761887l37.39125,5.00968c1.320092,0.176251 2.295784,1.233133 2.295784,2.480692l0,15.030295c0,1.384295 -1.195038,2.504526 -2.670947,2.504526s-2.670947,-1.120231 -2.670947,-2.504526l0,-12.857573l-32.821751,-4.399386l-15.367641,48.035726c-0.208647,0.666117 -0.704183,1.214316 -1.361554,1.522285l-10.683119,5.00968c-0.375163,0.176879 -0.787107,0.264691 -1.194369,0.264691l0.000001,0.000002z" fill="#333333" id="svg_20" stroke="#666666"/>
  <path d="m140.294976,184.638031c-0.125723,0 -0.250777,-0.007527 -0.370482,-0.024462c-1.465878,-0.190678 -2.483031,-1.455172 -2.279734,-2.825668c0.203966,-1.369869 1.685224,-2.475047 3.036079,-2.311967c1.465878,0.191305 2.509112,1.279548 2.305815,2.649416l-0.052162,0.352503c-0.182566,1.252577 -1.330124,2.160178 -2.639516,2.160178z" fill="#ffff00" id="svg_21" stroke="#ffff00"/>
  <path stroke="#4c4c4c" d="m401.144379,217.733242c2.206841,-43.334016 -16.290995,-91.916932 -49.629013,-113.909472c-24.079315,-15.971766 -55.074737,-23.30784 -89.738197,-21.192195c-41.913269,2.466265 -87.869738,18.812488 -132.913378,47.272388c-1.22045,0.763338 -2.879594,0.477321 -3.708831,-0.677408c-0.823887,-1.147202 -0.500886,-2.703358 0.724914,-3.476105c45.826065,-28.959803 92.706065,-45.599568 135.558913,-48.119148c35.862511,-2.177113 68.063671,5.457522 93.15947,22.097287c34.876788,23.009906 53.727332,74.485271 51.432217,119.585565c-2.079147,-4.581012 -5.059193,8.855936 -6.237442,-13.743035z" fill="#333333" id="svg_22"/>
  <path d="m185.317884,176.268911c-0.547698,0 -1.096065,-0.156807 -1.570201,-0.47983l-62.070425,-42.332958c-1.194369,-0.812262 -1.455178,-2.380335 -0.58916,-3.498058c0.866018,-1.125249 2.540543,-1.364851 3.729562,-0.552589l62.069756,42.333585c1.194369,0.812262 1.455178,2.380335 0.58916,3.498058c-0.52028,0.674899 -1.334136,1.031792 -2.158692,1.031792z" fill="#333333" id="svg_23" stroke="#333333"/>
  <path d="m174.634766,291.147833l-21.366237,0c-1.476578,0 -2.670947,-1.120231 -2.670947,-2.504526c0,-1.384922 1.194369,-2.505154 2.670947,-2.505154l21.366237,0c1.476578,0 2.670947,1.120231 2.670947,2.505154c0,1.384295 -1.195038,2.504526 -2.670947,2.504526z" fill="#666666" id="svg_24" stroke="#666666"/>
  <path d="m142.584741,301.167821c-1.476578,0 -2.670947,-1.120231 -2.670947,-2.505154c0,-6.903285 5.988565,-12.525141 13.354066,-12.525141c1.476578,0 2.670947,1.120231 2.670947,2.505154c0,1.384295 -1.195038,2.504526 -2.670947,2.504526c-4.418364,0 -8.012172,3.371357 -8.012172,7.514834c0,1.385549 -1.194369,2.505781 -2.670947,2.505781z" fill="#666666" id="svg_25" stroke="#666666"/>
  <path d="m260.099716,296.158141c-0.432006,0 -0.871368,-0.097848 -1.277293,-0.303579c-49.133653,-25.133077 -89.351666,-70.757107 -104.364875,-89.207056c-8.945733,-11.020418 -15.993582,-21.047933 -16.755276,-23.84663c-0.046812,-0.166843 -0.072893,-0.337449 -0.083592,-0.511192c-0.062193,-0.655455 0.068211,-1.382413 0.417294,-1.866634c0.495536,-0.692461 1.413716,-1.147202 2.305815,-1.147202c1.475909,0 2.670947,1.120231 2.670947,2.505154c0,0.038888 0,0.075895 -0.00535,0.114783c0.954292,2.081774 6.040727,9.819274 15.695992,21.715932c14.804562,18.190903 54.443447,63.170769 102.674301,87.844714c1.294012,0.660472 1.773498,2.182131 1.069984,3.395192c-0.485505,0.836724 -1.403685,1.306519 -2.347946,1.306519l-0.000001,-0.000001z" fill="#666666" id="svg_26" stroke="#666666"/>
  <path d="m294.340532,308.281855c-0.60521,0 -1.210419,-0.191305 -1.711305,-0.577678c-1.131508,-0.885648 -1.283312,-2.466265 -0.339051,-3.527537c11.96643,-13.47853 18.554855,-30.559237 18.554855,-48.099077c0,-41.43602 -35.941422,-75.148966 -80.123725,-75.148966c-20.354434,0 -44.871774,3.097258 -72.36233,26.070157c-1.111446,0.915128 -2.796001,0.826688 -3.771693,-0.205104c-0.981041,-1.032419 -0.886749,-2.614919 0.213997,-3.537573c28.83138,-24.08874 54.557801,-27.337788 75.919358,-27.337788c47.124758,0 85.465619,35.960936 85.465619,80.158646c0,18.708995 -7.031799,36.929378 -19.796705,51.303591c-0.52563,0.593359 -1.287324,0.901328 -2.049019,0.901328l-0.000001,0.000001z" fill="#333333" id="svg_27" stroke="#333333"/>
  <path d="m322.195552,228.301343c-7.04183,-20.546776 -21.809612,-38.064663 -41.584917,-49.339736c-10.855654,-6.171936 -22.67563,-10.22321 -35.132916,-12.04092c-4.861739,-0.687443 -9.692046,-1.022384 -14.757082,-1.022384c-15.576288,0 -30.437693,3.392683 -44.172272,10.088356c-1.298693,0.630993 -2.915706,0.161825 -3.599826,-1.068799c-0.682783,-1.228115 -0.171866,-2.739737 1.137526,-3.378257c19.00358,-9.261667 41.444482,-12.508206 62.20016,-9.572146c13.1608,1.922458 25.638147,6.198907 37.093661,12.710801c20.876051,11.903557 36.46237,30.397412 43.890732,52.076965c3.275488,9.357006 1.336389,6.615769 1.336389,16.709769l-6.411455,-15.163649z" fill="#333333" id="svg_28" stroke="#333333"/>
  <path d="m260.918253,352.325268c-9.404488,-8.048606 -14.172603,-19.193843 -14.172603,-33.118333c0,-1.384922 1.194369,-2.504526 2.670947,-2.504526c1.475909,0 2.670947,1.119604 2.670947,2.504526c0,12.461791 4.183636,22.358842 12.430536,29.418934l-3.599827,3.699399z" fill="#666666" id="svg_29" stroke="#666666"/>
  <path d="m230.721306,155.878941c-1.476578,0 -2.670947,-1.120231 -2.670947,-2.505154l0,-56.362822c0,-1.384922 1.194369,-2.505154 2.670947,-2.505154s2.670947,1.120859 2.670947,2.505154l0,56.362822c0,1.384922 -1.194369,2.505154 -2.670947,2.505154z" fill="#000000" id="svg_30" stroke="#000000"/>
  <path d="m213.569467,157.131518c-1.288662,0 -2.425519,-0.88063 -2.634166,-2.113763l-8.601332,-50.951088c-0.229378,-1.364851 0.766376,-2.649416 2.222222,-2.864556c1.423747,-0.217649 2.822082,0.711905 3.05681,2.081774l8.602,50.951715c0.229378,1.364851 -0.766376,2.649416 -2.222222,2.864556c-0.141104,0.021953 -0.282208,0.031361 -0.423312,0.031361l0,0.000001z" fill="#000000" id="svg_31" stroke="#000000"/>
  <path d="m196.856321,160.889249c-1.126827,0 -2.175411,-0.673017 -2.540543,-1.73178l-15.862509,-45.893111c-0.454074,-1.315927 0.31297,-2.730329 1.715986,-3.15559c1.434447,-0.430279 2.911024,0.296052 3.36443,1.60947l15.863177,45.892484c0.454074,1.315927 -0.31297,2.730329 -1.715986,3.15559c-0.27619,0.083421 -0.553048,0.122937 -0.824556,0.122937l0.000001,0z" fill="#000000" id="svg_32" stroke="#000000"/>
  <path d="m175.756242,157.332232c-0.970341,0 -1.909252,-0.498647 -2.378708,-1.36736l-17.307655,-31.814323c-0.672752,-1.230624 -0.151135,-2.739737 1.162939,-3.368848c1.314743,-0.621584 2.931755,-0.141754 3.594477,1.093888l17.308324,31.814323c0.672752,1.230624 0.151135,2.739737 -1.163607,3.368221c-0.391882,0.186287 -0.803825,0.274099 -1.215769,0.274099l-0.000001,0z" fill="#000000" id="svg_33" stroke="#000000"/>
  <path d="m334.882216,226.822335c-1.126827,0 -2.175411,-0.673017 -2.540543,-1.732407c-0.454074,-1.315927 0.313639,-2.72782 1.715986,-3.15559l52.669949,-16.033235c1.403685,-0.428398 2.911693,0.296052 3.36443,1.60947c0.454074,1.316554 -0.31297,2.72782 -1.715986,3.15559l-52.669949,16.033235c-0.27084,0.083421 -0.552379,0.122937 -0.823887,0.122937z" fill="#000000" id="svg_40" stroke="#000000"/>
  <path d="m328.257679,211.941321c-0.970341,0 -1.909252,-0.499274 -2.378708,-1.367987c-0.673421,-1.233133 -0.146454,-2.742246 1.168288,-3.368221l57.902169,-27.655793c1.298693,-0.615939 2.921056,-0.139245 3.588458,1.093261c0.672752,1.233133 0.146454,2.742246 -1.168288,3.368848l-57.902169,27.655166c-0.385863,0.186287 -0.797807,0.274726 -1.20975,0.274726z" fill="#000000" id="svg_41" stroke="#000000"/>
  <path stroke="#000000" d="m319.285197,198.215035c-0.823887,0 -1.637744,-0.356893 -2.159361,-1.032419c-0.866018,-1.120231 -0.604541,-2.685796 0.589829,-3.500567l59.133319,-40.280664c1.184338,-0.804735 2.858194,-0.567642 3.729562,0.555098c0.866018,1.120231 0.60521,2.685796 -0.589829,3.500567l-59.13265,40.281291c-0.474805,0.322396 -1.023172,0.476694 -1.57087,0.476694z" fill="#000000" id="svg_42"/>
  <path d="m308.122591,185.988455c-0.682783,0 -1.366904,-0.245247 -1.888521,-0.733858c-1.043234,-0.978478 -1.043234,-2.563486 0,-3.541964l55.283384,-51.851789c1.043903,-0.978478 2.733808,-0.978478 3.777043,0c1.043234,0.979105 1.043234,2.564113 0,3.541964l-55.284053,51.851789c-0.521617,0.488612 -1.205069,0.733858 -1.887853,0.733858z" fill="#333333" id="svg_43" stroke="#000000"/>
  <path d="m295.034016,175.518117c-0.547698,0 -1.095396,-0.15618 -1.570201,-0.479203c-1.194369,-0.812262 -1.455847,-2.380335 -0.589829,-3.498058l46.629891,-60.169477c0.871368,-1.12274 2.540543,-1.359833 3.729562,-0.552589c1.194369,0.812262 1.455847,2.380335 0.589829,3.498058l-46.629891,60.169477c-0.520948,0.674271 -1.334805,1.031792 -2.159361,1.031792z" fill="#000000" id="svg_44" stroke="#000000"/>
  <path d="m280.397307,167.103209c-0.411944,0 -0.823887,-0.088439 -1.2151,-0.274099c-1.309393,-0.628484 -1.83636,-2.135716 -1.162939,-3.368848l34.881469,-64.178726c0.668071,-1.238151 2.285084,-1.714845 3.594477,-1.093261c1.309393,0.628484 1.83636,2.135716 1.162939,3.368221l-34.882138,64.178726c-0.469455,0.868713 -1.408366,1.367987 -2.378708,1.367987z" fill="#000000" id="svg_45" stroke="#000000"/>
  <path d="m264.534129,160.889249c-0.271508,0 -0.553048,-0.038888 -0.823887,-0.12231c-1.403685,-0.428398 -2.170061,-1.842172 -1.715986,-3.158099l22.221556,-64.127293c0.454074,-1.309027 1.966095,-2.035359 3.36443,-1.606961c1.403685,0.428398 2.170061,1.842172 1.715986,3.158099l-22.221556,64.127293c-0.365801,1.056254 -1.413716,1.729271 -2.540543,1.729271z" fill="#000000" id="svg_46" stroke="#000000"/>
  <path d="m247.873145,157.131518c-0.140435,0 -0.281539,-0.010036 -0.422644,-0.031989c-1.455178,-0.21514 -2.452269,-1.497196 -2.222222,-2.864556l10.307287,-61.123492c0.230047,-1.367987 1.632394,-2.306949 3.05681,-2.081774c1.455178,0.21514 2.4516,1.497196 2.222222,2.864556l-10.307956,61.123492c-0.207978,1.233133 -1.344836,2.113763 -2.633497,2.113763z" fill="#000000" id="svg_47" stroke="#000000"/>
  <linearGradient gradientTransform="matrix(1 0 0 -1 -219.1 -324.49)" y2="-348.881" x2="246.992" y1="-332.25" x1="223.241" gradientUnits="userSpaceOnUse" id="svg_8">
   <stop stop-color="#666" offset="0"/>
   <stop offset="1"/>
  </linearGradient>
  <linearGradient y2="1.004055" x2="1.221621" y1="0.215155" x1="0.091103" id="svg_7">
   <stop stop-color="#666" offset="0"/>
   <stop stop-color="#3D3D3D" offset="0.401"/>
   <stop offset="1"/>
  </linearGradient>
 </g>
</svg>