<svg width="512" height="512" xmlns="http://www.w3.org/2000/svg">

 <g>
  <title>background</title>
  <rect fill="none" id="canvas_background" height="514" width="514" y="-1" x="-1"/>
 </g>
 <g>
  <title>Layer 1</title>
  <path stroke="null" id="svg_71" d="m509.133124,256.081218c0,139.6148 -114.237535,253.051826 -254.837579,253.051826c-140.600044,-1.745185 -254.837579,-115.18221 -254.837579,-253.051826c0,-139.6148 114.237535,-253.051826 254.837579,-253.051826s254.837579,113.437025 254.837579,253.051826z" fill="#000000"/>
  <linearGradient y2="0.785" x2="0.910207" y1="0.211724" x1="0.091517" id="svg_68">
   <stop stop-color="#666" offset="0"/>
   <stop offset="1"/>
  </linearGradient>
  <linearGradient y2="0.785" x2="0.910207" y1="0.211724" x1="0.091517" id="svg_67">
   <stop stop-color="#666" offset="0"/>
   <stop offset="1"/>
  </linearGradient>
  <path stroke="null" id="svg_1" fill="#ffffff" d="m370.134836,317.303921c-0.213997,-10.676069 1.925302,-22.045854 7.584847,-33.670922c12.931422,-26.601421 19.550609,-51.800984 20.620593,-74.798972c2.295115,-45.139182 -16.453006,-81.714175 -49.410511,-103.45645c-23.874681,-15.832521 -55.231222,-23.84663 -91.448165,-21.642546c-40.010035,2.353991 -85.945774,17.182946 -134.233471,47.695768l62.069756,42.333585c13.567394,-6.612251 29.003246,-10.369982 45.403422,-10.369982c5.180059,0 10.202964,0.349994 15.169026,1.051863c13.035745,1.903014 25.268334,6.21396 36.107938,12.375861c20.030764,11.421845 35.419805,29.358093 42.732475,50.699569c3.156452,9.019557 4.809577,18.587312 4.809577,28.556494c0,15.132533 -3.844585,29.360602 -10.683787,41.983591c0,0 0,2.607392 0.855318,7.167349c2.989267,16.282872 16.822819,57.312447 80.60388,88.8257l2.884275,-6.864397c0.001337,-0.000627 -32.527505,-30.109514 -33.065172,-69.886513z"/>
  <path stroke="null" id="svg_6" fill="#ffffff" d="m230.721306,178.42407c45.721742,0 82.794672,34.7692 82.794672,77.653493c0,18.890264 -7.209015,36.224999 -19.175446,49.698511c-11.325109,12.925941 -18.215804,37.976851 19.175446,58.016826c0,0 -64.098712,5.513973 -64.098712,-44.586593l-0.052162,0c4.647742,-8.018499 8.330492,-16.5369 10.734612,-25.553948c-44.171603,-22.593426 -82.68968,-62.924268 -103.518919,-88.52463c25.904975,-21.644428 49.728162,-26.703659 74.14051,-26.703659z"/>
  <path stroke="null" id="svg_9" fill="#ffffff" d="m260.099716,293.652987c-2.404788,9.017048 -6.08687,17.535449 -10.734612,25.553948c-28.366606,49.796986 -90.755351,79.656236 -90.755351,79.656236l-16.025012,0l0,-100.200503c0,-5.508955 4.752065,-10.019988 10.683119,-10.019988l21.366237,0l0,-15.030295l-37.39125,-5.00968l-16.024344,50.099938l-10.683119,5.010307l29.754241,-141.531776c0.532317,1.955074 6.405859,10.771408 16.290502,22.946556c20.829908,25.60099 59.347985,65.931205 103.519588,88.525258z"/>
  <g stroke="null" id="svg_10" opacity="0.7">
   <path stroke="null" id="svg_11" fill="#FFFFFF" d="m124.291363,309.094117l24.079315,-114.523911c-4.857057,-6.536356 -7.720601,-11.062443 -8.080383,-12.388405l-29.75491,141.531776l10.683119,-5.010307l3.07286,-9.609152z"/>
   <path stroke="null" id="svg_12" fill="#FFFFFF" d="m163.951647,288.643307l-10.683119,0c-5.931054,0 -10.683119,4.510406 -10.683119,10.019988l0,100.200503l10.683119,0l0,-100.20113c0,-5.508955 4.752065,-10.01936 10.683119,-10.01936z"/>
  </g>
  <g stroke="null" id="svg_17">
   <path stroke="null" id="svg_18" fill="#3A3847" d="m313.515978,366.298054c-0.454074,0 -0.90748,-0.102238 -1.324774,-0.327414c-16.786707,-8.997604 -26.519547,-19.800374 -28.935704,-32.10034c-2.800682,-14.296437 5.372656,-25.520077 9.019294,-29.683625c0.949611,-1.06629 2.624135,-1.223097 3.760993,-0.342467c1.142208,0.875612 1.304043,2.45623 0.370482,3.52252c-3.177183,3.620367 -10.297256,13.366883 -7.897817,25.598481c2.117899,10.783326 10.974689,20.421958 26.332299,28.656224c1.283312,0.685562 1.726686,2.216628 0.996422,3.414636c-0.494867,0.811635 -1.397666,1.261985 -2.321196,1.261985z"/>
   <path stroke="null" id="svg_19" fill="#3A3847" d="m158.609753,401.368324l-16.025012,0c-1.476578,0 -2.670947,-1.120231 -2.670947,-2.505154l0,-100.200503c0,-1.384295 1.194369,-2.504526 2.670947,-2.504526s2.670947,1.120231 2.670947,2.504526l0,97.695977l12.696694,0c6.227974,-3.106667 62.8368,-32.301053 89.054077,-78.335918c4.720634,-8.136418 8.252249,-16.5369 10.500553,-24.97627c0.354432,-1.341016 1.82031,-2.162687 3.239376,-1.820219c1.435116,0.332432 2.299796,1.692892 1.945364,3.033281c-2.362658,8.850832 -6.056108,17.64835 -10.980039,26.141662c-28.424118,49.899852 -91.255568,80.395739 -91.886858,80.693673c-0.375163,0.180642 -0.792457,0.273472 -1.2151,0.273472z"/>
   <path stroke="null" id="svg_20" fill="#3A3847" d="m110.535385,326.218103c-0.573779,0 -1.142208,-0.170606 -1.617013,-0.50931c-0.813856,-0.582069 -1.199719,-1.541102 -1.001772,-2.480065l29.754241,-141.531776c0.281539,-1.359833 1.705955,-2.233563 3.135052,-1.973891c1.444478,0.269081 2.388739,1.585008 2.102518,2.94296l-28.700976,136.526486l4.783496,-2.245481l15.695992,-49.063128c0.375832,-1.184836 1.664493,-1.928103 2.931755,-1.761887l37.39125,5.00968c1.320092,0.176251 2.295784,1.233133 2.295784,2.480692l0,15.030295c0,1.384295 -1.195038,2.504526 -2.670947,2.504526s-2.670947,-1.120231 -2.670947,-2.504526l0,-12.857573l-32.821751,-4.399386l-15.367641,48.035726c-0.208647,0.666117 -0.704183,1.214316 -1.361554,1.522285l-10.683119,5.00968c-0.375163,0.176879 -0.787107,0.264691 -1.194369,0.264691z"/>
   <path stroke="null" id="svg_21" fill="#3A3847" d="m140.294976,184.638031c-0.125723,0 -0.250777,-0.007527 -0.370482,-0.024462c-1.465878,-0.190678 -2.483031,-1.455172 -2.279734,-2.825668c0.203966,-1.369869 1.685224,-2.475047 3.036079,-2.311967c1.465878,0.191305 2.509112,1.279548 2.305815,2.649416l-0.052162,0.352503c-0.182566,1.252577 -1.330124,2.160178 -2.639516,2.160178z"/>
   <path stroke="null" id="svg_22" fill="#3A3847" d="m400.31707,396.55873c-0.427993,0 -0.855318,-0.097221 -1.246531,-0.288525c-64.871107,-32.051416 -78.950755,-74.049433 -81.991515,-90.615813c-0.881399,-4.711746 -0.89143,-7.476573 -0.89143,-7.593238c0,-1.379904 1.194369,-2.500136 2.664928,-2.500136l0.00535,0c1.471228,0 2.665597,1.115214 2.670947,2.495745c0,0.024462 0.020731,2.495118 0.813856,6.73707c2.868894,15.621772 16.066474,54.899496 76.58676,85.728442l1.157589,-2.744755c-6.129001,-6.101686 -32.132949,-34.086775 -32.623135,-70.444119c-0.239409,-11.894149 2.394757,-23.586957 7.824925,-34.737839c12.435886,-25.583427 19.295819,-50.436133 20.380515,-73.8713c2.206841,-43.334016 -14.939648,-79.30436 -48.277666,-101.2969c-24.079315,-15.971766 -55.074737,-23.30784 -89.738197,-21.192195c-41.913269,2.466265 -87.869738,18.812488 -132.913378,47.272388c-1.22045,0.763338 -2.879594,0.477321 -3.708831,-0.677408c-0.823887,-1.147202 -0.500886,-2.703358 0.724914,-3.476105c45.826065,-28.959803 92.706065,-45.599568 135.558913,-48.119148c35.862511,-2.177113 68.063671,5.457522 93.15947,22.097287c34.876788,23.009906 52.826434,60.521352 50.531319,105.621646c-1.116127,24.069296 -8.131876,49.550485 -20.85532,75.720999c-5.096466,10.46532 -7.568797,21.42427 -7.344101,32.579543c0.515598,38.323708 31.955733,67.860562 32.274053,68.154105c0.761695,0.704378 1.001104,1.76565 0.604541,2.700849l-2.884275,6.86377c-0.27619,0.6611 -0.839937,1.184836 -1.554151,1.428828c-0.304277,0.107883 -0.616578,0.156807 -0.929548,0.156807z"/>
   <path stroke="null" id="svg_23" fill="#3A3847" d="m185.317884,176.268911c-0.547698,0 -1.096065,-0.156807 -1.570201,-0.47983l-62.070425,-42.332958c-1.194369,-0.812262 -1.455178,-2.380335 -0.58916,-3.498058c0.866018,-1.125249 2.540543,-1.364851 3.729562,-0.552589l62.069756,42.333585c1.194369,0.812262 1.455178,2.380335 0.58916,3.498058c-0.52028,0.674899 -1.334136,1.031792 -2.158692,1.031792z"/>
   <path stroke="null" id="svg_24" fill="#3A3847" d="m174.634766,291.147833l-21.366237,0c-1.476578,0 -2.670947,-1.120231 -2.670947,-2.504526c0,-1.384922 1.194369,-2.505154 2.670947,-2.505154l21.366237,0c1.476578,0 2.670947,1.120231 2.670947,2.505154c0,1.384295 -1.195038,2.504526 -2.670947,2.504526z"/>
   <path stroke="null" id="svg_25" fill="#3A3847" d="m142.584741,301.167821c-1.476578,0 -2.670947,-1.120231 -2.670947,-2.505154c0,-6.903285 5.988565,-12.525141 13.354066,-12.525141c1.476578,0 2.670947,1.120231 2.670947,2.505154c0,1.384295 -1.195038,2.504526 -2.670947,2.504526c-4.418364,0 -8.012172,3.371357 -8.012172,7.514834c0,1.385549 -1.194369,2.505781 -2.670947,2.505781z"/>
   <path stroke="null" id="svg_26" fill="#3A3847" d="m260.099716,296.158141c-0.432006,0 -0.871368,-0.097848 -1.277293,-0.303579c-49.133653,-25.133077 -89.351666,-70.757107 -104.364875,-89.207056c-8.945733,-11.020418 -15.993582,-21.047933 -16.755276,-23.84663c-0.046812,-0.166843 -0.072893,-0.337449 -0.083592,-0.511192c-0.062193,-0.655455 0.068211,-1.382413 0.417294,-1.866634c0.495536,-0.692461 1.413716,-1.147202 2.305815,-1.147202c1.475909,0 2.670947,1.120231 2.670947,2.505154c0,0.038888 0,0.075895 -0.00535,0.114783c0.954292,2.081774 6.040727,9.819274 15.695992,21.715932c14.804562,18.190903 54.443447,63.170769 102.674301,87.844714c1.294012,0.660472 1.773498,2.182131 1.069984,3.395192c-0.485505,0.836724 -1.403685,1.306519 -2.347946,1.306519z"/>
   <path stroke="null" id="svg_27" fill="#3A3847" d="m294.340532,308.281855c-0.60521,0 -1.210419,-0.191305 -1.711305,-0.577678c-1.131508,-0.885648 -1.283312,-2.466265 -0.339051,-3.527537c11.96643,-13.47853 18.554855,-30.559237 18.554855,-48.099077c0,-41.43602 -35.941422,-75.148966 -80.123725,-75.148966c-20.354434,0 -44.871774,3.097258 -72.36233,26.070157c-1.111446,0.915128 -2.796001,0.826688 -3.771693,-0.205104c-0.981041,-1.032419 -0.886749,-2.614919 0.213997,-3.537573c28.83138,-24.08874 54.557801,-27.337788 75.919358,-27.337788c47.124758,0 85.465619,35.960936 85.465619,80.158646c0,18.708995 -7.031799,36.929378 -19.796705,51.303591c-0.52563,0.593359 -1.287324,0.901328 -2.049019,0.901328z"/>
   <path stroke="null" id="svg_28" fill="#3A3847" d="m318.857203,300.565681c-0.406594,0 -0.823887,-0.087812 -1.210419,-0.269081c-1.314743,-0.625975 -1.841041,-2.138225 -1.168288,-3.37073c6.896045,-12.730873 10.390879,-26.474093 10.390879,-40.848306c0,-9.560229 -1.574882,-18.908454 -4.673823,-27.776221c-7.04183,-20.546776 -21.809612,-38.064663 -41.584917,-49.339736c-10.855654,-6.171936 -22.67563,-10.22321 -35.132916,-12.04092c-4.861739,-0.687443 -9.692046,-1.022384 -14.757082,-1.022384c-15.576288,0 -30.437693,3.392683 -44.172272,10.088356c-1.298693,0.630993 -2.915706,0.161825 -3.599826,-1.068799c-0.682783,-1.228115 -0.171866,-2.739737 1.137526,-3.378257c19.00358,-9.261667 41.444482,-12.508206 62.20016,-9.572146c13.1608,1.922458 25.638147,6.198907 37.093661,12.710801c20.876051,11.903557 36.46237,30.397412 43.890732,52.076965c3.275488,9.357006 4.939981,19.228341 4.939981,29.322341c0,15.171422 -3.692781,29.67798 -10.975358,43.118249c-0.468118,0.871221 -1.407029,1.369869 -2.378039,1.369869z"/>
   <path stroke="null" id="svg_29" fill="#3A3847" d="m307.798921,366.494377c-10.448391,0 -32.247972,-1.643968 -46.880668,-14.169109c-9.404488,-8.048606 -14.172603,-19.193843 -14.172603,-33.118333c0,-1.384922 1.194369,-2.504526 2.670947,-2.504526c1.475909,0 2.670947,1.119604 2.670947,2.504526c0,12.461791 4.183636,22.358842 12.430536,29.418934c17.709568,15.152605 48.460232,12.706411 48.752471,12.671913c1.434447,-0.137363 2.76992,0.885648 2.905675,2.269943c0.135085,1.374887 -0.949611,2.593593 -2.415488,2.720921c-0.333701,0.028853 -2.540543,0.205731 -5.961816,0.205731z"/>
   <path stroke="null" id="svg_30" fill="#3A3847" d="m230.721306,155.878941c-1.476578,0 -2.670947,-1.120231 -2.670947,-2.505154l0,-56.362822c0,-1.384922 1.194369,-2.505154 2.670947,-2.505154s2.670947,1.120859 2.670947,2.505154l0,56.362822c0,1.384922 -1.194369,2.505154 -2.670947,2.505154z"/>
   <path stroke="null" id="svg_31" fill="#3A3847" d="m213.569467,157.131518c-1.288662,0 -2.425519,-0.88063 -2.634166,-2.113763l-8.601332,-50.951088c-0.229378,-1.364851 0.766376,-2.649416 2.222222,-2.864556c1.423747,-0.217649 2.822082,0.711905 3.05681,2.081774l8.602,50.951715c0.229378,1.364851 -0.766376,2.649416 -2.222222,2.864556c-0.141104,0.021953 -0.282208,0.031361 -0.423312,0.031361z"/>
   <path stroke="null" id="svg_32" fill="#3A3847" d="m196.856321,160.889249c-1.126827,0 -2.175411,-0.673017 -2.540543,-1.73178l-15.862509,-45.893111c-0.454074,-1.315927 0.31297,-2.730329 1.715986,-3.15559c1.434447,-0.430279 2.911024,0.296052 3.36443,1.60947l15.863177,45.892484c0.454074,1.315927 -0.31297,2.730329 -1.715986,3.15559c-0.27619,0.083421 -0.553048,0.122937 -0.824556,0.122937z"/>
   <path stroke="null" id="svg_33" fill="#3A3847" d="m175.756242,157.332232c-0.970341,0 -1.909252,-0.498647 -2.378708,-1.36736l-17.307655,-31.814323c-0.672752,-1.230624 -0.151135,-2.739737 1.162939,-3.368848c1.314743,-0.621584 2.931755,-0.141754 3.594477,1.093888l17.308324,31.814323c0.672752,1.230624 0.151135,2.739737 -1.163607,3.368221c-0.391882,0.186287 -0.803825,0.274099 -1.215769,0.274099z"/>
   <path stroke="null" id="svg_34" fill="#3A3847" d="m365.220935,350.216522c-0.547698,0 -1.096065,-0.151162 -1.570201,-0.474185l-23.92818,-16.282872c-1.193701,-0.812262 -1.455178,-2.382844 -0.58916,-3.498058c0.866018,-1.125877 2.540543,-1.370496 3.729562,-0.558234l23.927511,16.282872c1.194369,0.812262 1.455178,2.377826 0.58916,3.498058c-0.52028,0.674899 -1.334136,1.032419 -2.158692,1.032419z"/>
   <path stroke="null" id="svg_35" fill="#3A3847" d="m359.451717,320.058712c-0.407263,0 -0.819206,-0.088439 -1.211088,-0.274099l-29.269405,-13.92449c-1.314743,-0.626602 -1.841709,-2.133207 -1.173638,-3.365712c0.678102,-1.233133 2.274384,-1.727389 3.593808,-1.101415l29.269405,13.92449c1.315411,0.625975 1.841709,2.133207 1.174307,3.365712c-0.474137,0.871221 -1.413047,1.375514 -2.383389,1.375514z"/>
   <path stroke="null" id="svg_36" fill="#3A3847" d="m361.908667,298.565447c-0.276858,0 -0.553048,-0.038888 -0.829237,-0.12231l-27.026451,-8.268763c-1.403016,-0.430907 -2.164711,-1.844054 -1.711305,-3.15559c0.459424,-1.320945 1.962083,-2.030341 3.36978,-1.60947l27.026451,8.268763c1.403016,0.430907 2.164042,1.844054 1.711305,3.15559c-0.371151,1.061272 -1.413716,1.73178 -2.540543,1.73178z"/>
   <path stroke="null" id="svg_37" fill="#3A3847" d="m369.342379,279.175908c-0.141104,0 -0.282208,-0.010036 -0.422644,-0.034498l-30.447724,-4.506642c-1.455847,-0.21514 -2.452269,-1.497196 -2.222222,-2.866438c0.229378,-1.370496 1.622363,-2.318867 3.05681,-2.079265l30.447724,4.506642c1.455847,0.21514 2.4516,1.497196 2.222222,2.866438c-0.209316,1.233133 -1.346173,2.113763 -2.634166,2.113763z"/>
   <path stroke="null" id="svg_38" fill="#3A3847" d="m377.829356,258.582717l-37.605247,0c-1.475909,0 -2.670278,-1.120231 -2.670278,-2.504526c0,-1.384922 1.194369,-2.505154 2.670278,-2.505154l37.605247,0c1.475909,0 2.670278,1.120231 2.670278,2.505154c0,1.384295 -1.194369,2.504526 -2.670278,2.504526z"/>
   <path stroke="null" id="svg_39" fill="#3A3847" d="m338.883286,242.503067c-1.287993,0 -2.425519,-0.878748 -2.633497,-2.111254c-0.230047,-1.36736 0.761695,-2.649416 2.222222,-2.867065l45.35126,-6.76404c1.423747,-0.237093 2.822082,0.711905 3.056141,2.079265c0.230047,1.36736 -0.761695,2.649416 -2.221554,2.867065l-45.35126,6.764668c-0.141104,0.021326 -0.282208,0.031361 -0.423312,0.031361z"/>
   <path stroke="null" id="svg_40" fill="#3A3847" d="m334.882216,226.822335c-1.126827,0 -2.175411,-0.673017 -2.540543,-1.732407c-0.454074,-1.315927 0.313639,-2.72782 1.715986,-3.15559l52.669949,-16.033235c1.403685,-0.428398 2.911693,0.296052 3.36443,1.60947c0.454074,1.316554 -0.31297,2.72782 -1.715986,3.15559l-52.669949,16.033235c-0.27084,0.083421 -0.552379,0.122937 -0.823887,0.122937z"/>
   <path stroke="null" id="svg_41" fill="#3A3847" d="m328.257679,211.941321c-0.970341,0 -1.909252,-0.499274 -2.378708,-1.367987c-0.673421,-1.233133 -0.146454,-2.742246 1.168288,-3.368221l57.902169,-27.655793c1.298693,-0.615939 2.921056,-0.139245 3.588458,1.093261c0.672752,1.233133 0.146454,2.742246 -1.168288,3.368848l-57.902169,27.655166c-0.385863,0.186287 -0.797807,0.274726 -1.20975,0.274726z"/>
   <path stroke="null" id="svg_42" fill="#3A3847" d="m319.285197,198.215035c-0.823887,0 -1.637744,-0.356893 -2.159361,-1.032419c-0.866018,-1.120231 -0.604541,-2.685796 0.589829,-3.500567l59.133319,-40.280664c1.184338,-0.804735 2.858194,-0.567642 3.729562,0.555098c0.866018,1.120231 0.60521,2.685796 -0.589829,3.500567l-59.13265,40.281291c-0.474805,0.322396 -1.023172,0.476694 -1.57087,0.476694z"/>
   <path stroke="null" id="svg_43" fill="#3A3847" d="m308.122591,185.988455c-0.682783,0 -1.366904,-0.245247 -1.888521,-0.733858c-1.043234,-0.978478 -1.043234,-2.563486 0,-3.541964l55.283384,-51.851789c1.043903,-0.978478 2.733808,-0.978478 3.777043,0c1.043234,0.979105 1.043234,2.564113 0,3.541964l-55.284053,51.851789c-0.521617,0.488612 -1.205069,0.733858 -1.887853,0.733858z"/>
   <path stroke="null" id="svg_44" fill="#3A3847" d="m295.034016,175.518117c-0.547698,0 -1.095396,-0.15618 -1.570201,-0.479203c-1.194369,-0.812262 -1.455847,-2.380335 -0.589829,-3.498058l46.629891,-60.169477c0.871368,-1.12274 2.540543,-1.359833 3.729562,-0.552589c1.194369,0.812262 1.455847,2.380335 0.589829,3.498058l-46.629891,60.169477c-0.520948,0.674271 -1.334805,1.031792 -2.159361,1.031792z"/>
   <path stroke="null" id="svg_45" fill="#3A3847" d="m280.397307,167.103209c-0.411944,0 -0.823887,-0.088439 -1.2151,-0.274099c-1.309393,-0.628484 -1.83636,-2.135716 -1.162939,-3.368848l34.881469,-64.178726c0.668071,-1.238151 2.285084,-1.714845 3.594477,-1.093261c1.309393,0.628484 1.83636,2.135716 1.162939,3.368221l-34.882138,64.178726c-0.469455,0.868713 -1.408366,1.367987 -2.378708,1.367987z"/>
   <path stroke="null" id="svg_46" fill="#3A3847" d="m264.534129,160.889249c-0.271508,0 -0.553048,-0.038888 -0.823887,-0.12231c-1.403685,-0.428398 -2.170061,-1.842172 -1.715986,-3.158099l22.221556,-64.127293c0.454074,-1.309027 1.966095,-2.035359 3.36443,-1.606961c1.403685,0.428398 2.170061,1.842172 1.715986,3.158099l-22.221556,64.127293c-0.365801,1.056254 -1.413716,1.729271 -2.540543,1.729271z"/>
   <path stroke="null" id="svg_47" fill="#3A3847" d="m247.873145,157.131518c-0.140435,0 -0.281539,-0.010036 -0.422644,-0.031989c-1.455178,-0.21514 -2.452269,-1.497196 -2.222222,-2.864556l10.307287,-61.123492c0.230047,-1.367987 1.632394,-2.306949 3.05681,-2.081774c1.455178,0.21514 2.4516,1.497196 2.222222,2.864556l-10.307956,61.123492c-0.207978,1.233133 -1.344836,2.113763 -2.633497,2.113763z"/>
  </g>
 </g>
</svg>